<svg version="1.1" id="Layer_1" xmlns="http://www.w3.org/2000/svg" xmlns:xlink="http://www.w3.org/1999/xlink" x="0px" y="0px"
	 width="100%" viewBox="0 0 192 193" enable-background="new 0 0 192 193" xml:space="preserve">
<path fill="#FFFFFF" opacity="1.000000" stroke="none" 
	d="
M119.000000,0.999999 
	C143.591492,1.000000 168.182999,1.000000 193.000000,1.000000 
	C193.000000,24.020403 193.000000,47.041542 192.635620,70.404007 
	C188.415497,58.250984 183.559860,46.266319 174.793884,36.256508 
	C173.047424,34.262238 171.411163,32.171631 169.671341,30.171326 
	C166.405655,26.416689 163.564026,22.092747 159.690536,19.120441 
	C155.323929,15.769735 150.181076,13.256351 145.076752,11.080389 
	C136.509079,7.428012 127.704750,4.330800 119.000000,0.999999 
z"/>
<path fill="#FFFFFF" opacity="1.000000" stroke="none" 
	d="
M1.000000,70.000000 
	C1.000000,47.071083 1.000000,24.142166 1.000000,1.000000 
	C25.020473,1.000000 49.041580,1.000000 73.395424,1.372431 
	C63.569767,3.727872 54.187748,7.624077 45.374149,13.023363 
	C44.162064,13.765898 42.167343,13.318317 41.065681,14.136411 
	C38.343910,16.157604 35.918095,18.580345 33.399315,20.870275 
	C32.506294,21.682161 31.685347,22.573673 30.836834,23.434097 
	C26.610071,27.720196 22.385086,32.008049 18.159475,36.295284 
	C17.134230,37.158028 16.853195,38.931709 16.020857,40.390926 
	C12.772353,46.086044 9.109162,51.555958 6.073880,57.357452 
	C3.979420,61.360703 2.663723,65.771393 1.000000,70.000000 
z"/>
<path fill="#FFFFFF" opacity="1.000000" stroke="none" 
	d="
M193.000000,124.000000 
	C193.000000,147.256897 193.000000,170.513794 193.000000,194.000000 
	C171.979660,194.000000 150.958496,194.000000 129.479462,193.623215 
	C130.171738,192.234085 131.156326,190.761673 132.497131,190.279282 
	C149.067993,184.317322 162.018799,173.368790 173.849411,160.774796 
	C175.339722,159.188324 177.659042,158.398880 179.240845,156.873596 
	C180.284714,155.867020 180.825500,154.251633 181.348724,152.820084 
	C181.758270,151.699585 181.570038,150.346832 182.033066,149.261826 
	C185.636002,140.818726 189.332458,132.415527 193.000000,124.000000 
z"/>
<path fill="#FFFFFF" opacity="1.000000" stroke="none" 
	d="
M71.000000,194.000000 
	C66.310745,194.000000 61.621487,194.000000 56.323029,193.611343 
	C50.236710,192.814606 44.761745,192.363739 39.277969,192.088394 
	C38.884964,192.068665 38.427498,193.332809 38.000000,194.000000 
	C25.715040,194.000000 13.430079,194.000000 1.000000,194.000000 
	C1.000000,169.312607 1.000000,144.624969 1.392461,119.631699 
	C2.239962,123.370369 1.901633,127.711273 3.284002,131.408875 
	C10.170768,149.829880 21.566740,165.093933 37.380531,176.813904 
	C46.861263,183.840302 56.672348,190.463669 68.560539,192.968140 
	C69.408524,193.146774 70.188438,193.648499 71.000000,194.000000 
z"/>
<path fill="#180B05" opacity="1.000000" stroke="none" 
	d="
M1.000000,70.458069 
	C2.663723,65.771393 3.979420,61.360703 6.073880,57.357452 
	C9.109162,51.555958 12.772353,46.086044 16.020857,40.390926 
	C16.853195,38.931709 17.134230,37.158028 18.159475,36.295284 
	C22.385086,32.008049 26.610071,27.720196 30.836834,23.434097 
	C31.685347,22.573673 32.506294,21.682161 33.399315,20.870275 
	C35.918095,18.580345 38.343910,16.157604 41.065681,14.136411 
	C42.167343,13.318317 44.162064,13.765898 45.374149,13.023363 
	C54.187748,7.624077 63.569767,3.727872 73.864082,1.372431 
	C87.020897,1.000000 100.041786,1.000000 113.567383,1.300136 
	C114.426491,2.387032 114.780907,3.173792 114.695366,3.965576 
	C103.760010,3.779283 93.150078,2.522262 82.794861,3.635222 
	C65.300308,5.515507 49.648670,12.812057 36.120308,24.136236 
	C26.581106,32.121212 18.329792,41.291199 12.653588,52.864830 
	C12.251053,54.100689 12.074785,55.144493 11.683044,56.450344 
	C9.536032,61.225147 7.604492,65.737900 5.449294,70.578629 
	C4.467584,73.854019 3.788593,76.826096 2.883273,79.727554 
	C2.706976,80.292572 1.650494,80.582947 1.000000,81.000000 
	C1.000000,77.638710 1.000000,74.277428 1.000000,70.458069 
z"/>
<path fill="#170B05" opacity="1.000000" stroke="none" 
	d="
M193.000000,123.536819 
	C189.332458,132.415527 185.636002,140.818726 182.033066,149.261826 
	C181.570038,150.346832 181.758270,151.699585 181.348724,152.820084 
	C180.825500,154.251633 180.284714,155.867020 179.240845,156.873596 
	C177.659042,158.398880 175.339722,159.188324 173.849411,160.774796 
	C162.018799,173.368790 149.067993,184.317322 132.497131,190.279282 
	C131.156326,190.761673 130.171738,192.234085 129.010803,193.623215 
	C121.979050,194.000000 114.958107,194.000000 107.247391,193.641083 
	C109.368103,192.514679 112.178581,191.747177 115.399414,191.036194 
	C128.756851,188.277283 141.261322,184.476852 151.470871,175.158386 
	C151.658142,175.164307 151.999985,175.011459 152.349060,175.029083 
	C155.151489,173.039993 157.604828,171.033279 160.374451,168.918030 
	C164.794205,164.202820 168.897675,159.596146 173.296387,154.831787 
	C175.791733,151.126221 177.991852,147.578339 180.424210,143.760132 
	C182.553192,139.186478 184.449936,134.883148 186.565918,130.272186 
	C188.098602,124.957703 189.412079,119.950844 190.843048,114.560120 
	C191.640366,113.117508 192.320190,112.058754 193.000000,111.000000 
	C193.000000,115.024544 193.000000,119.049088 193.000000,123.536819 
z"/>
<path fill="#170B06" opacity="1.000000" stroke="none" 
	d="
M115.135315,3.960554 
	C114.780907,3.173792 114.426491,2.387032 114.036041,1.300136 
	C115.388893,1.000000 116.777779,1.000000 118.583336,0.999999 
	C127.704750,4.330800 136.509079,7.428012 145.076752,11.080389 
	C150.181076,13.256351 155.323929,15.769735 159.690536,19.120441 
	C163.564026,22.092747 166.405655,26.416689 169.671341,30.171326 
	C171.411163,32.171631 173.047424,34.262238 174.793884,36.256508 
	C183.559860,46.266319 188.415497,58.250984 192.635620,70.872665 
	C193.000000,75.024544 193.000000,79.049088 192.693741,83.825455 
	C191.855209,83.397743 191.322952,82.218216 190.813599,80.643013 
	C189.494781,75.519432 188.153061,70.791527 186.818634,65.704659 
	C185.283203,62.172924 183.740494,59.000153 182.180878,55.462234 
	C180.150986,51.719349 178.138000,48.341610 176.051178,44.624535 
	C170.669861,38.495346 165.362350,32.705494 160.046753,26.954994 
	C160.038666,26.994345 160.109985,26.957340 159.998352,26.636429 
	C156.917450,24.223015 153.948181,22.130512 150.849548,19.948854 
	C150.720154,19.859697 150.406525,19.879364 150.269836,19.610516 
	C149.783829,19.160727 149.434509,18.979784 149.089157,18.849258 
	C149.093109,18.899672 149.182114,18.851677 149.035980,18.588882 
	C148.271225,17.842779 147.652588,17.359470 146.830399,16.608637 
	C143.080276,14.621286 139.533722,12.901461 135.639359,11.087097 
	C133.942291,10.620738 132.593002,10.248915 131.144348,9.575459 
	C130.350983,8.899101 129.656998,8.524376 128.619659,7.955110 
	C125.923256,7.483068 123.570175,7.205568 121.042694,6.672525 
	C120.254417,6.008984 119.640541,5.600984 118.687180,5.091367 
	C117.276909,4.646684 116.206108,4.303619 115.135315,3.960554 
z"/>
<path fill="#180C06" opacity="1.000000" stroke="none" 
	d="
M71.466118,194.000000 
	C70.188438,193.648499 69.408524,193.146774 68.560539,192.968140 
	C56.672348,190.463669 46.861263,183.840302 37.380531,176.813904 
	C21.566740,165.093933 10.170768,149.829880 3.284002,131.408875 
	C1.901633,127.711273 2.239962,123.370369 1.392461,119.163040 
	C1.000000,116.629440 1.000000,114.258888 1.377628,111.521706 
	C2.759014,115.151237 3.762772,119.147400 4.839701,123.510223 
	C5.716005,126.225304 6.519139,128.573715 7.414978,131.265289 
	C9.471160,135.697296 11.434638,139.786163 13.423352,144.207794 
	C21.986021,159.198990 33.298161,171.114075 48.307297,179.856033 
	C49.323757,180.488617 50.128109,180.848862 51.070816,181.385223 
	C51.209171,181.561325 51.606632,181.767532 51.606632,181.767532 
	C51.606632,181.767532 52.054314,181.758591 52.300591,182.022888 
	C56.037735,183.819717 59.528599,185.352234 63.357841,187.086334 
	C70.215782,188.886581 76.748459,190.435150 83.241219,192.136124 
	C84.254066,192.401474 85.084961,193.361313 86.000000,194.000000 
	C81.310745,194.000000 76.621490,194.000000 71.466118,194.000000 
z"/>
<path fill="#ECA73B" opacity="1.000000" stroke="none" 
	d="
M86.467606,194.000000 
	C85.084961,193.361313 84.254066,192.401474 83.241219,192.136124 
	C76.748459,190.435150 70.215782,188.886581 63.301277,186.765671 
	C62.257507,185.167404 61.608688,184.091385 60.974953,183.000885 
	C60.990036,182.986435 61.016308,182.953964 61.462219,182.965332 
	C63.403561,182.939224 64.898987,182.901749 66.726974,183.007111 
	C74.035545,184.509415 81.011566,185.868851 88.105453,187.604858 
	C88.602158,188.277939 88.996056,188.850143 89.357613,188.830383 
	C97.017906,188.411926 104.673096,187.900833 112.332886,187.472076 
	C114.380638,187.357452 116.440254,187.454742 119.017052,187.454742 
	C117.223984,189.023880 116.106529,190.001785 114.989059,190.979675 
	C112.178581,191.747177 109.368103,192.514679 106.778809,193.641083 
	C106.250000,194.000000 105.500000,194.000000 104.490753,193.708694 
	C103.821007,193.611588 103.410500,193.805786 103.000000,194.000000 
	C97.645073,194.000000 92.290138,194.000000 86.467606,194.000000 
z"/>
<path fill="#EDD677" opacity="1.000000" stroke="none" 
	d="
M186.811340,66.063622 
	C188.153061,70.791527 189.494781,75.519432 190.558029,80.964142 
	C190.804718,87.782417 191.329910,93.883896 191.983353,100.220062 
	C192.407730,100.636505 192.703873,100.818253 193.000000,101.000000 
	C193.000000,103.041664 193.000000,105.083336 192.683807,107.632233 
	C192.578415,108.426308 192.789200,108.713158 193.000000,109.000000 
	C193.000000,109.444443 193.000000,109.888893 193.000000,110.666672 
	C192.320190,112.058754 191.640366,113.117508 190.628601,114.304413 
	C189.886047,113.150635 189.475464,111.868713 189.064865,110.586792 
	C188.815872,110.630089 188.566895,110.673393 188.317902,110.716698 
	C188.119934,111.865379 187.921951,113.014069 187.700928,114.296478 
	C186.902832,113.732178 186.384094,113.365387 185.879700,112.550346 
	C187.807449,99.254036 186.697235,86.561203 183.952545,73.809418 
	C183.947632,73.457710 183.844269,73.304840 183.432144,72.894592 
	C183.080200,71.821449 182.955505,71.060791 182.996826,70.090240 
	C187.733749,71.814972 184.903229,66.674423 186.811340,66.063622 
z"/>
<path fill="#F1DF84" opacity="1.000000" stroke="none" 
	d="
M4.766531,123.143555 
	C3.762772,119.147400 2.759014,115.151237 1.377628,111.077545 
	C1.000000,109.285645 1.000000,107.571281 1.324092,105.171463 
	C1.794955,100.987022 1.941725,97.488052 2.463184,93.991714 
	C3.836998,94.004532 4.836123,94.014702 5.901208,94.476860 
	C7.079409,103.144554 8.191651,111.360252 9.121410,119.804337 
	C7.842104,118.587860 6.745280,117.143005 5.941426,116.084084 
	C5.559534,118.378723 5.163033,120.761139 4.766531,123.143555 
z"/>
<path fill="#DFB555" opacity="1.000000" stroke="none" 
	d="
M1.000000,81.375000 
	C1.650494,80.582947 2.706976,80.292572 2.883273,79.727554 
	C3.788593,76.826096 4.467584,73.854019 5.537617,71.058121 
	C5.849598,73.438248 5.849598,75.666862 5.849598,78.490440 
	C7.454455,75.582512 8.719770,73.289825 10.025227,71.393478 
	C10.106343,72.052216 10.147319,72.314590 10.175413,72.955444 
	C9.234566,77.713165 8.306597,82.092407 7.265511,86.150536 
	C7.039849,85.197838 6.927307,84.566246 6.678409,83.169449 
	C5.808172,85.223747 5.201041,86.656952 4.418781,88.503571 
	C4.139647,87.032478 3.936594,85.962349 3.784568,85.161148 
	C2.729751,85.857719 1.864877,86.428864 1.000001,87.000000 
	C1.000000,86.555557 1.000000,86.111107 1.294317,85.245987 
	C1.392422,84.550201 1.196210,84.275101 0.999999,84.000000 
	C1.000000,83.250000 1.000000,82.500000 1.000000,81.375000 
z"/>
<path fill="#F0E48E" opacity="1.000000" stroke="none" 
	d="
M191.855103,99.985367 
	C191.329910,93.883896 190.804718,87.782417 190.535110,81.359818 
	C191.322952,82.218216 191.855209,83.397743 192.693741,84.288635 
	C193.000000,85.388893 193.000000,86.777779 192.707062,88.466896 
	C192.609406,89.178085 192.804703,89.589043 193.000000,90.000000 
	C193.000000,91.066673 193.000000,92.133339 192.759689,93.686966 
	C192.679581,94.449287 192.839783,94.724648 193.000000,95.000000 
	C193.000000,95.444443 193.000000,95.888893 192.674316,96.790405 
	C192.184113,98.160103 192.019608,99.072739 191.855103,99.985367 
z"/>
<path fill="#F4D871" opacity="1.000000" stroke="none" 
	d="
M1.000001,87.416672 
	C1.864877,86.428864 2.729751,85.857719 3.784568,85.161148 
	C3.936594,85.962349 4.139647,87.032478 4.418781,88.503571 
	C5.201041,86.656952 5.808172,85.223747 6.678409,83.169449 
	C6.927307,84.566246 7.039849,85.197838 7.269815,86.534302 
	C6.869908,89.501068 6.352579,91.762970 5.835249,94.024864 
	C4.836123,94.014702 3.836998,94.004532 2.392099,93.980225 
	C1.946326,93.966080 1.802637,93.956367 1.840900,93.656097 
	C1.586109,92.903877 1.293055,92.451942 1.000000,92.000000 
	C1.000000,90.611107 1.000000,89.222221 1.000001,87.416672 
z"/>
<path fill="#050105" opacity="1.000000" stroke="none" 
	d="
M38.467941,194.000000 
	C38.427498,193.332809 38.884964,192.068665 39.277969,192.088394 
	C44.761745,192.363739 50.236710,192.814606 55.856911,193.611343 
	C50.311958,194.000000 44.623920,194.000000 38.467941,194.000000 
z"/>
<path fill="#C2B587" opacity="1.000000" stroke="none" 
	d="
M2.017411,93.977577 
	C1.941725,97.488052 1.794955,100.987022 1.324092,104.742996 
	C1.000000,101.638710 1.000000,98.277428 1.201206,94.457222 
	C1.402413,93.998306 1.802637,93.956367 1.802637,93.956367 
	C1.802637,93.956367 1.946326,93.966080 2.017411,93.977577 
z"/>
<path fill="#8B805C" opacity="1.000000" stroke="none" 
	d="
M191.983353,100.220062 
	C192.019608,99.072739 192.184113,98.160103 192.674316,97.123734 
	C193.000000,98.066673 193.000000,99.133339 193.000000,100.600006 
	C192.703873,100.818253 192.407730,100.636505 191.983353,100.220062 
z"/>
<path fill="#A69564" opacity="1.000000" stroke="none" 
	d="
M1.840900,93.656097 
	C1.802637,93.956367 1.402413,93.998306 1.201206,93.999153 
	C1.000000,93.555557 1.000000,93.111107 1.000000,92.333328 
	C1.293055,92.451942 1.586109,92.903877 1.840900,93.656097 
z"/>
<path fill="#170B05" opacity="1.000000" stroke="none" 
	d="
M103.250000,194.000000 
	C103.410500,193.805786 103.821007,193.611588 104.115753,193.708694 
	C104.000000,194.000000 103.500000,194.000000 103.250000,194.000000 
z"/>
<path fill="#170B05" opacity="1.000000" stroke="none" 
	d="
M193.000000,108.750000 
	C192.789200,108.713158 192.578415,108.426308 192.683807,108.069733 
	C193.000000,108.000000 193.000000,108.500000 193.000000,108.750000 
z"/>
<path fill="#180B05" opacity="1.000000" stroke="none" 
	d="
M0.999999,84.250000 
	C1.196210,84.275101 1.392422,84.550201 1.294317,84.912651 
	C1.000000,85.000000 1.000000,84.500000 0.999999,84.250000 
z"/>
<path fill="#8B805C" opacity="1.000000" stroke="none" 
	d="
M193.000000,94.750000 
	C192.839783,94.724648 192.679581,94.449287 192.759689,94.086960 
	C193.000000,94.000000 193.000000,94.500000 193.000000,94.750000 
z"/>
<path fill="#170B06" opacity="1.000000" stroke="none" 
	d="
M193.000000,89.750000 
	C192.804703,89.589043 192.609406,89.178085 192.707062,88.883560 
	C193.000000,89.000000 193.000000,89.500000 193.000000,89.750000 
z"/>
<path fill="#E5A53E" opacity="1.000000" stroke="none" 
	d="
M9.985085,70.997131 
	C8.719770,73.289825 7.454455,75.582512 5.849598,78.490440 
	C5.849598,75.666862 5.849598,73.438248 5.761275,70.730141 
	C7.604492,65.737900 9.536032,61.225147 11.834162,56.109673 
	C12.427119,54.562222 12.653487,53.617500 12.879855,52.672775 
	C18.329792,41.291199 26.581106,32.121212 36.120308,24.136236 
	C49.648670,12.812057 65.300308,5.515507 82.794861,3.635222 
	C93.150078,2.522262 103.760010,3.779283 114.695358,3.965577 
	C116.206108,4.303619 117.276909,4.646684 118.830879,5.346054 
	C119.948402,6.110929 120.582748,6.519498 121.217094,6.928068 
	C123.570175,7.205568 125.923256,7.483068 128.367310,8.205083 
	C127.303909,9.803888 126.149536,10.958179 124.592407,12.164778 
	C101.912567,5.776297 80.102112,6.403450 58.884594,16.449337 
	C48.715416,21.264149 38.862873,26.825485 31.614120,35.460972 
	C25.495485,42.750145 20.742191,51.185406 15.052114,59.253769 
	C14.556396,59.832077 14.393147,60.270016 14.323509,61.036575 
	C13.856349,62.595192 13.295576,63.825191 12.540681,65.254257 
	C12.274318,65.815170 12.202076,66.177032 12.188406,66.663254 
	C12.246979,66.787621 12.053246,66.982704 11.791988,67.189369 
	C11.425631,67.819580 11.320530,68.243134 11.337246,68.888588 
	C11.311786,69.404823 11.164509,69.699158 10.792977,70.100723 
	C10.290163,70.408875 10.095617,70.671936 9.985085,70.997131 
M122.589012,8.518198 
	C122.589012,8.518198 122.477364,8.584875 122.589012,8.518198 
z"/>
<path fill="#E2A23F" opacity="1.000000" stroke="none" 
	d="
M12.653588,52.864830 
	C12.653487,53.617500 12.427119,54.562222 12.049634,55.847618 
	C12.074785,55.144493 12.251053,54.100689 12.653588,52.864830 
z"/>
<path fill="#DD9F3D" opacity="1.000000" stroke="none" 
	d="
M115.399414,191.036194 
	C116.106529,190.001785 117.223984,189.023880 119.017052,187.454742 
	C116.440254,187.454742 114.380638,187.357452 112.332886,187.472076 
	C104.673096,187.900833 97.017906,188.411926 89.357613,188.830383 
	C88.996056,188.850143 88.602158,188.277939 88.572189,187.553925 
	C100.003487,186.324005 111.594048,187.267548 122.026382,184.231384 
	C132.598221,181.154617 142.025208,174.144211 151.965836,169.247864 
	C151.989594,170.421524 152.001175,171.204086 152.005753,171.993973 
	C151.998764,172.001312 151.986435,172.014160 151.634171,172.041519 
	C150.271820,172.657547 149.261734,173.246201 147.322754,174.376190 
	C149.427078,174.788620 150.355347,174.970551 151.283600,175.152481 
	C141.261322,184.476852 128.756851,188.277283 115.399414,191.036194 
z"/>
<path fill="#E5A339" opacity="1.000000" stroke="none" 
	d="
M152.012741,171.986633 
	C152.001175,171.204086 151.989594,170.421524 152.101715,168.960236 
	C152.936539,167.859177 153.647675,167.436874 154.715347,167.013214 
	C156.584381,165.542313 158.096863,164.072769 159.658661,162.795456 
	C159.707993,162.987701 159.629959,162.601776 160.000458,162.689240 
	C160.776154,162.063080 161.181366,161.349442 161.710419,160.642075 
	C161.834274,160.648361 161.596191,160.578873 161.978180,160.684479 
	C163.208435,159.482300 164.056702,158.174515 164.933212,156.921265 
	C164.961441,156.975800 164.863861,156.901215 165.193848,156.914246 
	C166.355667,155.624725 167.187485,154.322159 168.009766,153.009491 
	C168.000214,152.999390 168.023209,153.016342 168.355576,152.967682 
	C169.074677,152.216049 169.461411,151.513062 169.869751,150.873779 
	C169.891357,150.937469 169.788361,150.850937 170.152313,150.858887 
	C171.264343,149.494675 172.012436,148.122498 172.779816,146.806534 
	C172.799133,146.862747 172.686096,146.825928 172.988297,146.756500 
	C173.520157,146.143707 173.749832,145.600342 174.261658,144.845398 
	C175.956924,143.287735 177.370010,141.941666 178.841064,141.020447 
	C178.928238,142.302032 178.957458,143.158768 178.718201,144.210022 
	C176.633530,147.932846 174.817337,151.461151 173.001160,154.989471 
	C168.897675,159.596146 164.794205,164.202820 160.001678,168.911499 
	C156.879333,170.004517 154.446045,170.995575 152.012741,171.986633 
z"/>
<path fill="#E2B24E" opacity="1.000000" stroke="none" 
	d="
M185.865341,112.998596 
	C186.384094,113.365387 186.902832,113.732178 187.700928,114.296478 
	C187.921951,113.014069 188.119934,111.865379 188.317902,110.716698 
	C188.566895,110.673393 188.815872,110.630089 189.064865,110.586792 
	C189.475464,111.868713 189.886047,113.150635 190.511093,114.688263 
	C189.412079,119.950844 188.098602,124.957703 186.346375,129.921280 
	C184.891434,129.583405 183.875259,129.288803 182.776367,128.629959 
	C183.750900,123.176674 184.808121,118.087639 185.865341,112.998596 
z"/>
<path fill="#EAAB44" opacity="1.000000" stroke="none" 
	d="
M182.859070,128.994202 
	C183.875259,129.288803 184.891434,129.583405 186.127151,130.228912 
	C184.449936,134.883148 182.553192,139.186478 180.122772,143.750031 
	C179.388290,144.012024 179.187485,144.013763 178.986664,144.015518 
	C178.957458,143.158768 178.928238,142.302032 178.798218,140.644348 
	C179.620392,138.521561 180.719254,137.284195 181.408234,135.849930 
	C181.918259,134.788177 181.895020,133.470245 182.075485,131.839798 
	C182.024200,130.841492 182.006775,130.269836 182.155365,129.608978 
	C182.527298,129.371933 182.706543,129.196732 182.859070,128.994202 
z"/>
<path fill="#DBA143" opacity="1.000000" stroke="none" 
	d="
M178.718201,144.210022 
	C179.187485,144.013763 179.388290,144.012024 179.890533,144.020355 
	C177.991852,147.578339 175.791733,151.126221 173.296387,154.831787 
	C174.817337,151.461151 176.633530,147.932846 178.718201,144.210022 
z"/>
<path fill="#DD9F3D" opacity="1.000000" stroke="none" 
	d="
M152.005753,171.993973 
	C154.446045,170.995575 156.879333,170.004517 159.685394,169.020020 
	C157.604828,171.033279 155.151489,173.039993 152.350571,174.654236 
	C151.997482,173.512573 151.991959,172.763367 151.986435,172.014160 
	C151.986435,172.014160 151.998764,172.001312 152.005753,171.993973 
z"/>
<path fill="#E5A339" opacity="1.000000" stroke="none" 
	d="
M151.634171,172.041519 
	C151.991959,172.763367 151.997482,173.512573 152.001495,174.636627 
	C151.999985,175.011459 151.658142,175.164307 151.470871,175.158386 
	C150.355347,174.970551 149.427078,174.788620 147.322754,174.376190 
	C149.261734,173.246201 150.271820,172.657547 151.634171,172.041519 
z"/>
<path fill="#DF9F36" opacity="1.000000" stroke="none" 
	d="
M135.987152,11.181634 
	C139.533722,12.901461 143.080276,14.621286 146.862915,16.954197 
	C147.793365,17.995413 148.487732,18.423544 149.182114,18.851677 
	C149.182114,18.851677 149.093109,18.899672 149.210083,19.132408 
	C149.686890,19.536552 150.046707,19.707958 150.406525,19.879364 
	C150.406525,19.879364 150.720154,19.859697 150.993195,20.255812 
	C154.214157,22.753731 157.162064,24.855537 160.109985,26.957342 
	C160.109985,26.957340 160.038666,26.994345 160.023331,27.313900 
	C159.342804,28.414362 158.677597,29.195265 157.822906,29.711689 
	C155.823792,29.724707 155.964493,24.227123 152.688538,27.808666 
	C148.180252,24.677031 143.996109,21.623491 139.835480,18.192625 
	C138.259415,16.481516 136.659851,15.147732 134.871353,13.656399 
	C135.135696,13.070122 135.561417,12.125877 135.987152,11.181634 
z"/>
<path fill="#E0A441" opacity="1.000000" stroke="none" 
	d="
M158.012405,29.976170 
	C158.677597,29.195265 159.342804,28.414362 160.031433,27.274549 
	C165.362350,32.705494 170.669861,38.495346 175.697266,44.607193 
	C173.617050,43.611187 171.816940,42.293190 169.888153,40.775257 
	C169.407028,40.590134 169.054581,40.604950 168.702133,40.619762 
	C169.125473,40.755638 169.548828,40.891514 170.025757,41.394646 
	C170.602951,43.596054 171.126556,45.430214 171.376602,47.079445 
	C167.367874,42.351772 163.632736,37.809029 159.884003,32.902645 
	C159.152954,32.106834 158.435455,31.674662 157.833069,31.167507 
	C157.948181,31.092525 157.746582,31.279192 157.828995,30.956692 
	C157.945068,30.414850 157.978729,30.195509 158.012405,29.976170 
z"/>
<path fill="#DCA33B" opacity="1.000000" stroke="none" 
	d="
M171.650177,47.264370 
	C171.126556,45.430214 170.602951,43.596054 170.037994,41.382378 
	C169.996628,41.002861 170.016815,40.975189 170.016815,40.975189 
	C171.816940,42.293190 173.617050,43.611187 175.771088,44.946529 
	C178.138000,48.341610 180.150986,51.719349 181.937012,55.656319 
	C181.809113,57.475407 181.908157,58.735260 182.003433,59.997719 
	C181.999664,60.000317 181.992065,60.008118 181.666077,59.953804 
	C180.203552,59.278591 179.067032,58.657688 177.694382,57.804714 
	C176.068420,55.045837 174.678604,52.519032 173.558838,49.936913 
	C173.124969,49.002720 172.421051,48.123837 171.698685,47.242908 
	C171.680237,47.240864 171.650177,47.264370 171.650177,47.264370 
z"/>
<path fill="#E6BC5C" opacity="1.000000" stroke="none" 
	d="
M182.007202,59.995117 
	C181.908157,58.735260 181.809113,57.475407 181.953918,56.021465 
	C183.740494,59.000153 185.283203,62.172924 186.818634,65.704659 
	C184.903229,66.674423 187.733749,71.814972 182.749237,69.817963 
	C180.867249,65.849319 179.398880,61.943054 177.930511,58.036789 
	C179.067032,58.657688 180.203552,59.278591 181.680115,60.191925 
	C182.136261,60.758366 182.252380,61.032379 182.368515,61.306385 
	C182.490829,61.219639 182.724350,61.063934 182.719482,61.056076 
	C182.495117,60.694321 182.249954,60.345467 182.007202,59.995117 
z"/>
<path fill="#E5A53E" opacity="1.000000" stroke="none" 
	d="
M135.639359,11.087097 
	C135.561417,12.125877 135.135696,13.070122 134.871353,13.656399 
	C136.659851,15.147732 138.259415,16.481516 139.488281,18.103294 
	C137.040817,17.336092 134.964050,16.280890 132.887238,14.884735 
	C131.901764,13.710840 130.916351,12.877899 129.944214,12.038204 
	C129.957504,12.031450 129.928436,12.061323 129.978271,11.725710 
	C130.433319,10.885761 130.838516,10.381427 131.243729,9.877092 
	C132.593002,10.248915 133.942291,10.620738 135.639359,11.087097 
z"/>
<path fill="#D8A046" opacity="1.000000" stroke="none" 
	d="
M159.998352,26.636429 
	C157.162064,24.855537 154.214157,22.753731 151.122589,20.344969 
	C153.948181,22.130512 156.917450,24.223015 159.998352,26.636429 
z"/>
<path fill="#DF9F36" opacity="1.000000" stroke="none" 
	d="
M131.144348,9.575459 
	C130.838516,10.381427 130.433319,10.885761 129.571915,11.792263 
	C127.742203,12.167109 126.368675,12.139788 124.995155,12.112467 
	C126.149536,10.958179 127.303909,9.803888 128.710632,8.399624 
	C129.656998,8.524376 130.350983,8.899101 131.144348,9.575459 
z"/>
<path fill="#D8A046" opacity="1.000000" stroke="none" 
	d="
M149.035980,18.588882 
	C148.487732,18.423544 147.793365,17.995413 147.066467,17.221720 
	C147.652588,17.359470 148.271225,17.842779 149.035980,18.588882 
z"/>
<path fill="#DF9F36" opacity="1.000000" stroke="none" 
	d="
M121.042694,6.672526 
	C120.582748,6.519498 119.948402,6.110929 119.170364,5.447672 
	C119.640541,5.600984 120.254417,6.008984 121.042694,6.672526 
z"/>
<path fill="#D8A046" opacity="1.000000" stroke="none" 
	d="
M150.269836,19.610516 
	C150.046707,19.707958 149.686890,19.536552 149.206146,19.081993 
	C149.434509,18.979784 149.783829,19.160727 150.269836,19.610516 
z"/>
<path fill="#E2A33C" opacity="1.000000" stroke="none" 
	d="
M52.054314,181.758591 
	C52.054314,181.758591 51.606632,181.767532 51.606632,181.767532 
	C51.606632,181.767532 51.209171,181.561325 51.062019,181.062790 
	C49.974968,180.237411 49.035076,179.910568 48.095184,179.583710 
	C33.298161,171.114075 21.986021,159.198990 13.613949,143.927643 
	C13.216491,140.866898 12.653674,138.419098 12.060286,135.838348 
	C13.238064,136.304779 14.093881,136.643707 15.048210,137.330200 
	C15.567133,138.555969 15.856485,139.531876 16.427458,140.297867 
	C26.277744,153.512726 36.114067,166.748245 50.122379,175.989075 
	C50.981529,176.428452 52.050571,176.671143 53.077358,176.945679 
	C53.035107,176.977509 53.073421,176.878891 53.112690,177.258118 
	C54.762486,178.096054 56.373013,178.554779 58.257652,179.063004 
	C58.668457,179.238205 58.805153,179.363907 58.818352,179.715942 
	C59.468670,180.946167 60.242489,181.950073 61.016308,182.953964 
	C61.016308,182.953964 60.990036,182.986435 60.579514,182.999603 
	C57.464100,182.594727 54.759209,182.176666 52.054314,181.758591 
z"/>
<path fill="#E3C466" opacity="1.000000" stroke="none" 
	d="
M4.839701,123.510223 
	C5.163033,120.761139 5.559534,118.378723 5.941426,116.084084 
	C6.745280,117.143005 7.842104,118.587860 9.337628,120.114220 
	C10.985153,124.227180 12.233978,128.258636 13.322393,132.561325 
	C11.695872,131.083618 10.229760,129.334686 8.677754,127.483269 
	C8.236156,128.603607 7.779214,129.762863 7.322272,130.922134 
	C6.519139,128.573715 5.716005,126.225304 4.839701,123.510223 
z"/>
<path fill="#DFB14A" opacity="1.000000" stroke="none" 
	d="
M7.414977,131.265289 
	C7.779214,129.762863 8.236156,128.603607 8.677754,127.483269 
	C10.229760,129.334686 11.695872,131.083618 13.561475,132.841705 
	C14.290545,134.228104 14.620122,135.605362 14.949697,136.982635 
	C14.093881,136.643707 13.238064,136.304779 12.060286,135.838348 
	C12.653674,138.419098 13.216491,140.866898 13.588711,143.594849 
	C11.434638,139.786163 9.471160,135.697296 7.414977,131.265289 
z"/>
<path fill="#DBA64F" opacity="1.000000" stroke="none" 
	d="
M52.300591,182.022888 
	C54.759209,182.176666 57.464100,182.594727 60.564430,183.014069 
	C61.608688,184.091385 62.257507,185.167404 62.962894,186.564087 
	C59.528599,185.352234 56.037735,183.819717 52.300591,182.022888 
z"/>
<path fill="#DBA64F" opacity="1.000000" stroke="none" 
	d="
M48.307297,179.856033 
	C49.035076,179.910568 49.974968,180.237411 50.923660,180.886688 
	C50.128109,180.848862 49.323757,180.488617 48.307297,179.856033 
z"/>
<path fill="#170B06" opacity="1.000000" stroke="none" 
	d="
M15.048211,137.330200 
	C14.620122,135.605362 14.290545,134.228104 13.721884,132.570465 
	C12.233978,128.258636 10.985153,124.227180 9.520111,119.885834 
	C8.191651,111.360252 7.079409,103.144554 5.901208,94.476860 
	C6.352579,91.762970 6.869908,89.501068 7.382934,86.855408 
	C8.306597,82.092407 9.234566,77.713165 10.403400,72.685730 
	C10.768588,71.356194 10.892910,70.674835 11.017232,69.993484 
	C11.164509,69.699158 11.311786,69.404823 11.617218,68.697563 
	C11.867997,67.850655 11.960621,67.416679 12.053246,66.982704 
	C12.053246,66.982704 12.246979,66.787621 12.392061,66.465599 
	C12.603029,65.780785 12.668917,65.417984 12.734802,65.055191 
	C13.295576,63.825191 13.856349,62.595192 14.626131,60.867004 
	C15.018290,59.950344 15.201439,59.531872 15.384586,59.113400 
	C20.742191,51.185406 25.495485,42.750145 31.614120,35.460972 
	C38.862873,26.825485 48.715416,21.264149 58.884594,16.449337 
	C80.102112,6.403450 101.912567,5.776297 124.592407,12.164776 
	C126.368675,12.139788 127.742203,12.167109 129.522079,12.127876 
	C129.928436,12.061323 129.957504,12.031450 130.074707,12.365973 
	C131.090378,13.542226 131.988831,14.383956 132.887283,15.225687 
	C134.964050,16.280890 137.040817,17.336092 139.464783,18.480621 
	C143.996109,21.623491 148.180252,24.677031 152.826721,28.120480 
	C154.774918,29.433323 156.260742,30.356256 157.746582,31.279190 
	C157.746582,31.279192 157.948181,31.092525 157.912018,31.485172 
	C158.549759,32.340641 159.223679,32.803467 159.897583,33.266289 
	C163.632736,37.809029 167.367874,42.351772 171.376602,47.079445 
	C171.650177,47.264370 171.680237,47.240864 171.764191,47.555771 
	C172.328354,48.577862 172.808563,49.285046 173.288773,49.992229 
	C174.678604,52.519032 176.068420,55.045837 177.694366,57.804714 
	C179.398880,61.943054 180.867249,65.849319 182.583221,70.027855 
	C182.955505,71.060791 183.080200,71.821449 183.384216,73.039429 
	C183.589355,73.728699 183.713364,73.880836 183.935562,73.953156 
	C186.697235,86.561203 187.807449,99.254036 185.879700,112.550346 
	C184.808121,118.087639 183.750900,123.176674 182.776367,128.629959 
	C182.706543,129.196732 182.527298,129.371933 181.801804,129.647369 
	C180.912720,130.848816 180.543182,131.922653 180.087006,133.369217 
	C180.462479,134.158508 180.924591,134.575089 181.386688,134.991669 
	C181.584244,134.323486 181.781815,133.655304 182.051758,132.814148 
	C182.124130,132.641174 182.109360,132.266449 182.109344,132.266449 
	C181.895020,133.470245 181.918259,134.788177 181.408234,135.849930 
	C180.719254,137.284195 179.620392,138.521561 178.740265,140.219513 
	C177.370010,141.941666 175.956924,143.287735 173.956848,144.895050 
	C173.141937,145.712860 172.914017,146.269394 172.686096,146.825928 
	C172.686096,146.825928 172.799133,146.862747 172.491760,146.956421 
	C171.385696,148.317032 170.587021,149.583984 169.788361,150.850937 
	C169.788361,150.850937 169.891357,150.937469 169.607666,151.007751 
	C168.890381,151.724136 168.456787,152.370239 168.023209,153.016342 
	C168.023209,153.016342 168.000214,152.999390 167.699402,153.108124 
	C166.553680,154.444992 165.708771,155.673111 164.863861,156.901215 
	C164.863861,156.901215 164.961441,156.975800 164.618164,157.022598 
	C163.381973,158.239212 162.489075,159.409042 161.596191,160.578873 
	C161.596191,160.578873 161.834274,160.648361 161.432983,160.736633 
	C160.564453,161.417191 160.097198,162.009491 159.629959,162.601776 
	C159.629959,162.601776 159.707993,162.987701 159.340607,162.853134 
	C157.435089,164.150558 155.896942,165.582565 154.358795,167.014557 
	C153.647675,167.436874 152.936539,167.859177 152.089539,168.569122 
	C142.025208,174.144211 132.598221,181.154617 122.026382,184.231384 
	C111.594048,187.267548 100.003487,186.324005 88.454315,187.177353 
	C81.011566,185.868851 74.035545,184.509415 66.514740,182.716339 
	C63.627254,181.351669 61.284550,180.420639 58.941849,179.489594 
	C58.805153,179.363907 58.668457,179.238205 58.028053,178.808746 
	C56.040703,177.962936 54.557064,177.420914 53.073421,176.878891 
	C53.073421,176.878891 53.035107,176.977509 52.929111,176.656067 
	C51.992832,176.153900 51.162548,175.973160 50.332268,175.792419 
	C36.114067,166.748245 26.277744,153.512726 16.427458,140.297867 
	C15.856485,139.531876 15.567133,138.555969 15.048211,137.330200 
M83.138863,12.367232 
	C71.657806,14.948681 60.745506,18.913357 50.569393,24.961866 
	C47.727760,26.650885 46.299267,28.112253 48.243210,31.215506 
	C47.207104,31.838419 46.442318,32.461914 45.566757,32.759537 
	C45.087364,32.922497 44.425262,32.511761 43.837959,32.399406 
	C40.462639,31.753679 30.864721,40.097061 31.103052,43.474926 
	C31.112329,43.606388 31.366514,43.714432 31.388182,43.852032 
	C32.216171,49.110401 31.546858,49.700268 25.758083,48.408089 
	C21.825771,56.664501 17.140024,64.418098 14.487610,73.654099 
	C12.270762,81.373405 10.891436,89.040550 10.187667,96.806580 
	C9.290324,106.708694 12.535028,116.236214 15.356890,125.587990 
	C19.162960,138.201447 25.960499,149.210861 35.758194,158.127472 
	C38.793774,160.890060 42.540756,162.854736 45.817703,165.372543 
	C49.721268,168.371811 53.026009,172.553223 57.362564,174.515793 
	C75.258118,182.614716 93.817719,187.251892 113.565521,181.961105 
	C115.922943,181.329514 118.199615,180.396530 121.708313,179.193756 
	C122.905571,178.959961 125.391457,178.671738 127.758705,177.978455 
	C138.625015,174.796173 146.833282,167.137695 155.598236,160.641953 
	C163.933853,154.464401 169.109497,145.351486 174.082840,136.351990 
	C174.990234,134.710037 176.403214,131.832642 175.768265,131.101639 
	C171.950699,126.706543 175.026703,125.979927 178.401520,124.735359 
	C179.231796,124.429161 179.621185,122.573189 179.966293,121.359451 
	C184.215683,106.414558 184.144806,91.375084 180.595322,76.338455 
	C180.211533,74.712601 178.598312,73.376968 177.678406,72.080154 
	C177.768524,70.726151 178.345749,69.122955 177.881927,67.921745 
	C173.537308,56.669704 167.198837,46.544132 159.028687,37.747765 
	C155.185699,33.610233 150.125259,30.507984 145.539200,27.266817 
	C138.837036,22.530115 130.901413,19.464172 123.325500,16.055052 
	C110.706421,10.376535 97.224632,12.247523 83.138863,12.367232 
z"/>
<path fill="#DAA351" opacity="1.000000" stroke="none" 
	d="
M58.818352,179.715942 
	C61.284550,180.420639 63.627254,181.351669 66.182190,182.573486 
	C64.898987,182.901749 63.403561,182.939224 61.462219,182.965332 
	C60.242489,181.950073 59.468670,180.946167 58.818352,179.715942 
z"/>
<path fill="#E6BC5C" opacity="1.000000" stroke="none" 
	d="
M183.952545,73.809418 
	C183.713364,73.880836 183.589355,73.728699 183.611481,73.351906 
	C183.844269,73.304840 183.947632,73.457710 183.952545,73.809418 
z"/>
<path fill="#E2A23F" opacity="1.000000" stroke="none" 
	d="
M10.792977,70.100723 
	C10.892910,70.674835 10.768588,71.356194 10.416280,72.307259 
	C10.147319,72.314590 10.106343,72.052216 10.025227,71.393478 
	C10.095617,70.671936 10.290163,70.408875 10.792977,70.100723 
z"/>
<path fill="#DF9F36" opacity="1.000000" stroke="none" 
	d="
M122.533188,8.551537 
	C122.477364,8.584875 122.589012,8.518198 122.533188,8.551537 
z"/>
<path fill="#E2A23F" opacity="1.000000" stroke="none" 
	d="
M12.540682,65.254257 
	C12.668917,65.417984 12.603029,65.780785 12.333488,66.341232 
	C12.202076,66.177032 12.274318,65.815170 12.540682,65.254257 
z"/>
<path fill="#E2A23F" opacity="1.000000" stroke="none" 
	d="
M11.791988,67.189369 
	C11.960621,67.416679 11.867997,67.850655 11.495401,68.475655 
	C11.320530,68.243134 11.425631,67.819580 11.791988,67.189369 
z"/>
<path fill="#E2A23F" opacity="1.000000" stroke="none" 
	d="
M15.052116,59.253769 
	C15.201439,59.531872 15.018290,59.950344 14.532518,60.538383 
	C14.393147,60.270016 14.556396,59.832077 15.052116,59.253769 
z"/>
<path fill="#D79F4C" opacity="1.000000" stroke="none" 
	d="
M154.715363,167.013214 
	C155.896942,165.582565 157.435089,164.150558 159.291290,162.660889 
	C158.096863,164.072769 156.584381,165.542313 154.715363,167.013214 
z"/>
<path fill="#D79F4C" opacity="1.000000" stroke="none" 
	d="
M165.193863,156.914246 
	C165.708771,155.673111 166.553680,154.444992 167.708954,153.118225 
	C167.187485,154.322159 166.355667,155.624725 165.193863,156.914246 
z"/>
<path fill="#D79F4C" opacity="1.000000" stroke="none" 
	d="
M161.978180,160.684479 
	C162.489075,159.409042 163.381973,158.239212 164.589935,156.968063 
	C164.056702,158.174515 163.208435,159.482300 161.978180,160.684479 
z"/>
<path fill="#D79F4C" opacity="1.000000" stroke="none" 
	d="
M170.152313,150.858887 
	C170.587021,149.583984 171.385696,148.317032 172.472443,146.900208 
	C172.012436,148.122498 171.264343,149.494675 170.152313,150.858887 
z"/>
<path fill="#D79F4C" opacity="1.000000" stroke="none" 
	d="
M160.000458,162.689240 
	C160.097198,162.009491 160.564453,161.417191 161.309143,160.730347 
	C161.181366,161.349442 160.776154,162.063080 160.000458,162.689240 
z"/>
<path fill="#D79F4C" opacity="1.000000" stroke="none" 
	d="
M168.355576,152.967682 
	C168.456787,152.370239 168.890381,151.724136 169.586060,150.944061 
	C169.461411,151.513062 169.074677,152.216049 168.355576,152.967682 
z"/>
<path fill="#D79F4C" opacity="1.000000" stroke="none" 
	d="
M172.988297,146.756500 
	C172.914017,146.269394 173.141937,145.712860 173.674683,145.106659 
	C173.749832,145.600342 173.520157,146.143707 172.988297,146.756500 
z"/>
<path fill="#E2B24E" opacity="1.000000" stroke="none" 
	d="
M180.173630,132.996506 
	C180.543182,131.922653 180.912720,130.848816 181.635803,129.736572 
	C182.006775,130.269836 182.024200,130.841492 182.075500,131.839798 
	C182.109360,132.266449 182.124130,132.641174 181.750824,132.818649 
	C180.976212,132.996262 180.574921,132.996384 180.173630,132.996506 
z"/>
<path fill="#D8A046" opacity="1.000000" stroke="none" 
	d="
M157.828995,30.956692 
	C156.260742,30.356256 154.774918,29.433323 153.150894,28.198576 
	C155.964493,24.227123 155.823792,29.724707 157.822906,29.711689 
	C157.978729,30.195509 157.945068,30.414850 157.828995,30.956692 
z"/>
<path fill="#D8A046" opacity="1.000000" stroke="none" 
	d="
M159.884003,32.902649 
	C159.223679,32.803467 158.549759,32.340641 157.796906,31.560156 
	C158.435455,31.674662 159.152954,32.106834 159.884003,32.902649 
z"/>
<path fill="#DCA33B" opacity="1.000000" stroke="none" 
	d="
M169.984406,41.015129 
	C169.548828,40.891514 169.125473,40.755638 168.702133,40.619762 
	C169.054581,40.604950 169.407028,40.590134 169.888153,40.775253 
	C170.016815,40.975189 169.996628,41.002861 169.984406,41.015129 
z"/>
<path fill="#E0A441" opacity="1.000000" stroke="none" 
	d="
M173.558838,49.936913 
	C172.808563,49.285046 172.328354,48.577862 171.782623,47.557816 
	C172.421051,48.123837 173.124969,49.002720 173.558838,49.936913 
z"/>
<path fill="#DCA33B" opacity="1.000000" stroke="none" 
	d="
M182.003433,59.997715 
	C182.249954,60.345467 182.495117,60.694321 182.719482,61.056076 
	C182.724350,61.063934 182.490829,61.219639 182.368515,61.306385 
	C182.252380,61.032379 182.136261,60.758366 182.006104,60.246235 
	C181.992065,60.008118 181.999664,60.000317 182.003433,59.997715 
z"/>
<path fill="#DF9F36" opacity="1.000000" stroke="none" 
	d="
M132.887238,14.884733 
	C131.988831,14.383956 131.090378,13.542226 130.061432,12.372726 
	C130.916351,12.877899 131.901764,13.710840 132.887238,14.884733 
z"/>
<path fill="#DAA351" opacity="1.000000" stroke="none" 
	d="
M53.112690,177.258118 
	C54.557064,177.420914 56.040703,177.962936 57.753941,178.759232 
	C56.373013,178.554779 54.762486,178.096054 53.112690,177.258118 
z"/>
<path fill="#DAA351" opacity="1.000000" stroke="none" 
	d="
M50.122379,175.989075 
	C51.162548,175.973160 51.992832,176.153900 52.971363,176.624237 
	C52.050571,176.671143 50.981529,176.428452 50.122379,175.989075 
z"/>
<path fill="#FFFFFF" opacity="1.000000" stroke="none" 
	d="
M83.566833,12.205818 
	C97.224632,12.247523 110.706421,10.376535 123.325500,16.055052 
	C130.901413,19.464172 138.837036,22.530115 145.539200,27.266817 
	C150.125259,30.507984 155.185699,33.610233 159.028687,37.747765 
	C167.198837,46.544132 173.537308,56.669704 177.881927,67.921745 
	C178.345749,69.122955 177.768524,70.726151 177.678406,72.080154 
	C178.598312,73.376968 180.211533,74.712601 180.595322,76.338455 
	C184.144806,91.375084 184.215683,106.414558 179.966293,121.359451 
	C179.621185,122.573189 179.231796,124.429161 178.401520,124.735359 
	C175.026703,125.979927 171.950699,126.706543 175.768265,131.101639 
	C176.403214,131.832642 174.990234,134.710037 174.082840,136.351990 
	C169.109497,145.351486 163.933853,154.464401 155.598236,160.641953 
	C146.833282,167.137695 138.625015,174.796173 127.758705,177.978455 
	C125.391457,178.671738 122.905571,178.959961 121.708313,179.193756 
	C118.199615,180.396530 115.922943,181.329514 113.565521,181.961105 
	C93.817719,187.251892 75.258118,182.614716 57.362564,174.515793 
	C53.026009,172.553223 49.721268,168.371811 45.817703,165.372543 
	C42.540756,162.854736 38.793774,160.890060 35.758194,158.127472 
	C25.960499,149.210861 19.162960,138.201447 15.356890,125.587990 
	C12.535028,116.236214 9.290324,106.708694 10.187667,96.806580 
	C10.891436,89.040550 12.270762,81.373405 14.487610,73.654099 
	C17.140024,64.418098 21.825771,56.664501 25.758083,48.408089 
	C31.546858,49.700268 32.216171,49.110401 31.388182,43.852032 
	C31.366514,43.714432 31.112329,43.606388 31.103052,43.474926 
	C30.864721,40.097061 40.462639,31.753679 43.837959,32.399406 
	C44.425262,32.511761 45.087364,32.922497 45.566757,32.759537 
	C46.442318,32.461914 47.207104,31.838419 48.243210,31.215506 
	C46.299267,28.112253 47.727760,26.650885 50.569393,24.961866 
	C60.745506,18.913357 71.657806,14.948681 83.566833,12.205818 
M114.238007,103.986694 
	C107.406128,98.914528 100.574249,93.842361 94.051407,88.999626 
	C94.305016,87.700066 94.942650,85.904289 94.959747,84.102615 
	C95.059341,73.609375 94.895409,63.112732 95.075798,52.621628 
	C95.145668,48.558186 94.978645,43.937279 100.993683,43.471340 
	C101.432114,43.437382 101.807007,42.583263 102.212791,42.108887 
	C100.160156,40.276531 98.597885,37.911480 96.481499,37.203983 
	C92.624001,35.914444 89.307961,32.579342 84.585236,33.968647 
	C81.219604,34.958729 77.696671,35.574474 74.200737,35.919178 
	C70.160553,36.317539 68.884621,37.875286 70.294716,41.722519 
	C71.062828,43.818192 72.729980,45.777977 72.874382,47.875942 
	C73.596870,58.373245 73.949623,68.895988 74.476982,80.381477 
	C71.562012,78.485664 69.540703,77.276604 67.631042,75.911362 
	C57.755474,68.851166 52.145027,53.627224 61.307590,44.000797 
	C62.167336,43.097530 62.144981,39.846996 61.337238,39.216061 
	C60.112049,38.259045 57.239494,37.801350 56.112576,38.602528 
	C50.796246,42.382149 45.822384,46.646053 40.772961,50.793945 
	C40.338253,51.151039 40.070713,51.908169 40.019749,52.504612 
	C39.632328,57.038639 39.408894,61.587948 38.959087,66.115074 
	C38.350243,72.242920 42.293880,78.063843 40.130932,84.354256 
	C39.952202,84.874039 41.743202,86.286880 42.817829,86.973679 
	C44.646111,88.142151 46.885883,88.765892 48.504135,90.144936 
	C53.021915,93.994926 55.708500,99.692818 62.870312,100.743645 
	C66.757446,101.313988 70.156052,105.213844 74.187584,107.885231 
	C72.783585,122.329178 76.479248,137.449097 71.111794,152.031113 
	C68.671364,151.034225 66.794830,150.267700 66.269043,150.052917 
	C65.310997,147.162369 65.224831,144.874924 64.038086,143.775543 
	C62.031696,141.916855 59.380791,140.708557 56.893402,139.437057 
	C55.917385,138.938141 54.507229,138.570297 53.543789,138.890945 
	C49.639992,140.190125 45.833038,141.780304 41.990353,143.263107 
	C42.410622,143.554886 42.830891,143.846664 43.251160,144.138443 
	C42.374619,146.047073 41.033028,147.894745 40.772198,149.884125 
	C40.572144,151.409943 41.349396,154.203735 42.355869,154.560455 
	C48.293037,156.664658 53.844017,160.475769 60.721489,159.076218 
	C63.877972,158.433853 67.165565,158.128891 70.386482,158.174988 
	C76.784348,158.266541 83.227371,159.336960 89.558472,158.832489 
	C96.317459,158.293930 102.968796,156.404495 110.088799,155.022949 
	C111.464035,158.624878 115.422356,158.366119 119.143761,157.934082 
	C132.646744,156.366425 141.703934,147.734116 149.965912,138.002747 
	C150.530396,137.337875 150.586578,135.996826 150.451218,135.030167 
	C150.100861,132.527847 148.983963,130.030289 149.117538,127.582359 
	C149.492920,120.702629 147.296875,114.862236 143.138458,109.554985 
	C142.654953,108.937920 142.803284,107.859520 142.403564,107.135925 
	C141.612137,105.703201 140.939407,103.603813 139.696869,103.121521 
	C132.963959,100.508080 126.071945,98.304512 118.594933,95.740326 
	C121.898422,94.255501 124.509125,93.366653 126.820007,91.978615 
	C130.555908,89.734642 134.495728,87.580879 137.599182,84.606285 
	C140.465805,81.858688 142.486893,78.167534 144.581253,74.710732 
	C145.264191,73.583542 145.224243,71.869743 145.117004,70.454384 
	C145.010544,69.049294 144.069000,67.682106 144.069122,66.298355 
	C144.069946,56.295185 140.011795,48.834423 131.648697,43.028397 
	C125.552223,38.795967 118.800751,38.134071 112.016502,37.149994 
	C110.723518,36.962444 108.576683,38.606831 107.872734,39.954082 
	C107.459358,40.745232 108.993217,42.700550 109.863632,43.988678 
	C112.647507,48.108521 117.509277,50.458942 119.058250,55.740723 
	C122.806267,68.520912 121.736778,80.060204 111.739510,89.864227 
	C110.732231,90.852036 109.717567,93.091179 110.170219,94.078369 
	C111.670731,97.350868 113.840935,100.316315 115.331856,103.719032 
	C115.200310,103.836746 115.068764,103.954468 114.238007,103.986694 
z"/>
<path fill="#EAAB44" opacity="1.000000" stroke="none" 
	d="
M180.087006,133.369217 
	C180.574921,132.996384 180.976212,132.996262 181.678436,132.991623 
	C181.781815,133.655304 181.584244,134.323486 181.386688,134.991669 
	C180.924591,134.575089 180.462479,134.158508 180.087006,133.369217 
z"/>
<path fill="#130A06" opacity="1.000000" stroke="none" 
	d="
M115.754234,103.399544 
	C113.840935,100.316315 111.670731,97.350868 110.170219,94.078369 
	C109.717567,93.091179 110.732231,90.852036 111.739510,89.864227 
	C121.736778,80.060204 122.806267,68.520912 119.058250,55.740723 
	C117.509277,50.458942 112.647507,48.108521 109.863632,43.988678 
	C108.993217,42.700550 107.459358,40.745232 107.872734,39.954082 
	C108.576683,38.606831 110.723518,36.962444 112.016502,37.149994 
	C118.800751,38.134071 125.552223,38.795967 131.648697,43.028397 
	C140.011795,48.834423 144.069946,56.295185 144.069122,66.298355 
	C144.069000,67.682106 145.010544,69.049294 145.117004,70.454384 
	C145.224243,71.869743 145.264191,73.583542 144.581253,74.710732 
	C142.486893,78.167534 140.465805,81.858688 137.599182,84.606285 
	C134.495728,87.580879 130.555908,89.734642 126.820007,91.978615 
	C124.509125,93.366653 121.898422,94.255501 118.594933,95.740326 
	C126.071945,98.304512 132.963959,100.508080 139.696869,103.121521 
	C140.939407,103.603813 141.612137,105.703201 142.403564,107.135925 
	C142.803284,107.859520 142.654953,108.937920 143.138458,109.554985 
	C147.296875,114.862236 149.492920,120.702629 149.117538,127.582359 
	C148.983963,130.030289 150.100861,132.527847 150.451218,135.030167 
	C150.586578,135.996826 150.530396,137.337875 149.965912,138.002747 
	C141.703934,147.734116 132.646744,156.366425 119.143761,157.934082 
	C115.422356,158.366119 111.464035,158.624878 110.088799,155.022949 
	C102.968796,156.404495 96.317459,158.293930 89.558472,158.832489 
	C83.227371,159.336960 76.784348,158.266541 70.386482,158.174988 
	C67.165565,158.128891 63.877972,158.433853 60.721489,159.076218 
	C53.844017,160.475769 48.293037,156.664658 42.355869,154.560455 
	C41.349396,154.203735 40.572144,151.409943 40.772198,149.884125 
	C41.033028,147.894745 42.374619,146.047073 43.251160,144.138443 
	C42.830891,143.846664 42.410622,143.554886 41.990353,143.263107 
	C45.833038,141.780304 49.639992,140.190125 53.543789,138.890945 
	C54.507229,138.570297 55.917385,138.938141 56.893402,139.437057 
	C59.380791,140.708557 62.031696,141.916855 64.038086,143.775543 
	C65.224831,144.874924 65.310997,147.162369 66.269043,150.052917 
	C66.794830,150.267700 68.671364,151.034225 71.111794,152.031113 
	C76.479248,137.449097 72.783585,122.329178 74.187584,107.885231 
	C70.156052,105.213844 66.757446,101.313988 62.870312,100.743645 
	C55.708500,99.692818 53.021915,93.994926 48.504135,90.144936 
	C46.885883,88.765892 44.646111,88.142151 42.817829,86.973679 
	C41.743202,86.286880 39.952202,84.874039 40.130932,84.354256 
	C42.293880,78.063843 38.350243,72.242920 38.959087,66.115074 
	C39.408894,61.587948 39.632328,57.038639 40.019749,52.504612 
	C40.070713,51.908169 40.338253,51.151039 40.772961,50.793945 
	C45.822384,46.646053 50.796246,42.382149 56.112576,38.602528 
	C57.239494,37.801350 60.112049,38.259045 61.337238,39.216061 
	C62.144981,39.846996 62.167336,43.097530 61.307590,44.000797 
	C52.145027,53.627224 57.755474,68.851166 67.631042,75.911362 
	C69.540703,77.276604 71.562012,78.485664 74.476982,80.381477 
	C73.949623,68.895988 73.596870,58.373245 72.874382,47.875942 
	C72.729980,45.777977 71.062828,43.818192 70.294716,41.722519 
	C68.884621,37.875286 70.160553,36.317539 74.200737,35.919178 
	C77.696671,35.574474 81.219604,34.958729 84.585236,33.968647 
	C89.307961,32.579342 92.624001,35.914444 96.481499,37.203983 
	C98.597885,37.911480 100.160156,40.276531 102.212791,42.108887 
	C101.807007,42.583263 101.432114,43.437382 100.993683,43.471340 
	C94.978645,43.937279 95.145668,48.558186 95.075798,52.621628 
	C94.895409,63.112732 95.059341,73.609375 94.959747,84.102615 
	C94.942650,85.904289 94.305016,87.700066 94.051407,88.999626 
	C100.574249,93.842361 107.406128,98.914528 114.747215,104.368752 
	C117.510300,110.161293 120.440956,115.404861 121.828072,121.029114 
	C123.220695,126.675774 123.075150,132.701797 123.603706,138.561554 
	C124.393440,138.527802 125.183182,138.494049 125.972916,138.460297 
	C125.972916,131.792816 126.803825,124.987991 125.731125,118.497810 
	C124.727875,112.427872 122.183121,106.367783 115.754234,103.399544 
M111.723961,107.379311 
	C111.723961,107.379311 111.574799,107.190918 111.392189,106.674698 
	C110.982613,106.308815 110.573029,105.942940 110.047600,105.180420 
	C109.858376,104.937965 109.612274,104.843109 108.990509,104.281464 
	C98.997223,98.602112 89.003929,92.922760 78.501312,86.751404 
	C76.018768,85.485710 73.536217,84.220009 70.648697,82.412910 
	C67.191566,80.196556 63.734436,77.980202 60.180061,75.187439 
	C59.818085,74.772247 59.456108,74.357048 58.915863,73.368530 
	C58.340580,72.841179 57.765301,72.313828 57.136852,71.899147 
	C57.136852,71.899147 57.261433,71.900230 57.259762,71.227470 
	C56.857056,70.757919 56.454353,70.288368 56.051380,69.078659 
	C55.216805,66.733788 54.382233,64.388924 53.611916,61.253075 
	C54.055954,55.546280 54.499989,49.839481 54.924816,44.379601 
	C49.020138,47.123295 44.468376,54.160660 42.965794,63.923653 
	C43.490314,67.545807 44.014832,71.167961 43.973896,75.255890 
	C46.309002,79.167671 48.644112,83.079460 51.243088,87.581871 
	C52.721996,88.754814 54.200901,89.927765 55.999565,91.746864 
	C62.243309,95.177574 68.346825,98.911621 74.797913,101.893791 
	C77.481567,103.134377 77.804199,104.670311 77.425560,107.821976 
	C77.535767,110.541969 77.645981,113.261955 77.462959,116.766869 
	C77.529083,118.160149 77.595207,119.553421 77.342850,121.837372 
	C76.543419,132.582413 78.841576,143.596649 74.230133,154.107635 
	C80.707970,154.107635 86.871651,154.107635 92.996353,154.107635 
	C92.446083,147.781311 91.974693,142.361862 91.606895,136.057571 
	C91.482025,133.706268 91.357147,131.354965 91.529610,128.160995 
	C91.476723,126.086853 91.423843,124.012718 91.587433,121.407166 
	C91.502892,121.235596 91.418358,121.064026 91.508873,120.021500 
	C91.478813,117.639992 91.448761,115.258476 91.801834,112.390686 
	C92.178047,111.900192 92.554260,111.409706 93.597443,111.092079 
	C96.356941,113.551422 99.116432,116.010757 102.091805,119.089752 
	C103.750961,122.058426 105.410110,125.027107 107.040604,128.824860 
	C107.415428,132.541275 107.790253,136.257675 108.008926,140.752075 
	C106.993576,143.762192 105.978226,146.772324 104.962875,149.782440 
	C105.355293,150.039703 105.747719,150.296982 106.140144,150.554245 
	C108.122238,148.775421 110.104332,146.996597 112.685371,144.946503 
	C112.931686,144.367798 113.178001,143.789093 113.290482,143.145752 
	C113.290482,143.145752 113.316978,143.292007 113.906677,142.950455 
	C114.683418,141.330429 115.460159,139.710403 116.157303,138.106720 
	C116.157303,138.106720 116.222763,138.156082 116.863358,137.769058 
	C119.804680,131.058441 119.965820,124.260246 117.429214,116.798706 
	C116.986855,116.453423 116.544487,116.108147 116.134315,115.361710 
	C116.134315,115.361710 115.974030,114.992554 116.165222,114.305923 
	C115.490616,113.396645 114.816010,112.487373 114.281456,111.278839 
	C114.281456,111.278839 114.081528,111.015770 114.162704,110.350060 
	C113.453644,109.525307 112.744583,108.700562 111.973953,107.703239 
	C111.973953,107.703239 111.824150,107.597725 111.723961,107.379311 
M140.076996,112.307861 
	C139.749512,112.074638 139.422028,111.841415 139.044846,111.191109 
	C138.863541,110.927490 138.616699,110.830185 138.070389,110.346474 
	C137.464630,109.859116 136.858887,109.371765 136.086319,108.219330 
	C134.450089,107.071724 132.813858,105.924110 131.061432,104.904854 
	C131.061432,104.904854 131.215149,104.825188 130.986465,104.348114 
	C130.655228,104.265144 130.324005,104.182175 129.573898,103.795914 
	C129.402008,103.808754 129.230103,103.821602 128.691360,103.281364 
	C126.589218,102.692886 124.487068,102.104408 122.384926,101.515930 
	C122.179131,102.016769 121.973328,102.517616 121.767532,103.018463 
	C123.028885,104.467339 124.290237,105.916214 125.851257,107.271393 
	C125.851257,107.271393 125.572594,107.416039 125.709091,108.096687 
	C126.766174,110.146950 127.823257,112.197205 129.032455,114.771568 
	C129.388168,115.181267 129.743881,115.590958 129.995621,116.794540 
	C130.044388,121.525238 130.093155,126.255936 129.922562,131.769073 
	C128.787613,139.696228 126.485855,147.076599 119.274826,152.547379 
	C129.924774,152.897217 147.073715,142.584976 145.951385,128.173843 
	C145.000183,124.471909 144.048981,120.769974 143.106018,116.375969 
	C142.121429,115.181915 141.136856,113.987862 140.111832,112.907555 
	C140.111832,112.907555 140.232468,112.902908 140.076996,112.307861 
M123.185120,77.102097 
	C122.964607,77.389565 122.946190,77.689445 122.920975,78.725746 
	C121.374298,82.431343 119.827629,86.136940 118.029404,90.445229 
	C126.570457,88.925812 132.862381,85.126846 137.603226,77.525070 
	C138.177475,74.710083 138.751709,71.895096 139.940033,68.851402 
	C140.000305,68.231117 140.060577,67.610832 140.348557,66.153091 
	C139.266983,62.680840 138.185394,59.208588 137.139481,55.360703 
	C137.139481,55.360703 136.982162,55.017735 137.031082,54.318340 
	C131.767136,46.265331 120.812698,40.275146 114.628174,41.721069 
	C117.588745,46.020866 120.633278,50.442608 123.097626,55.342937 
	C123.675789,58.583569 124.253952,61.824200 124.649109,65.836937 
	C124.569168,68.205643 124.489220,70.574341 124.082108,73.677666 
	C123.918015,74.735809 123.753914,75.793945 123.185120,77.102097 
M91.576035,83.105064 
	C91.467888,79.768013 91.359749,76.430962 91.638466,72.222321 
	C91.989021,61.399502 92.339584,50.576683 92.693779,39.641541 
	C87.074707,39.641541 80.540077,39.641541 74.535652,39.641541 
	C75.379364,44.124649 76.395309,48.375847 76.928360,52.686749 
	C77.433846,56.774757 77.433411,60.925316 77.495781,65.734734 
	C77.606049,66.181244 77.716309,66.627762 77.539268,67.801224 
	C77.716385,73.594315 75.045898,80.518990 83.493515,83.051437 
	C85.490807,83.650200 87.557182,84.018509 89.807747,84.988358 
	C90.225426,85.358253 90.643112,85.728157 91.060791,86.098061 
	C91.167976,85.398003 91.275162,84.697937 91.576035,83.105064 
M100.072388,122.639709 
	C98.682152,121.096909 97.291916,119.554108 95.006210,117.017578 
	C95.006210,123.909935 94.936630,129.314590 95.077805,134.713730 
	C95.100159,135.568588 95.967918,136.493195 96.625076,137.223312 
	C99.160561,140.040329 99.172554,139.993896 95.625420,142.462311 
	C95.260086,142.716553 94.960510,143.489166 95.061913,143.919601 
	C95.610321,146.247574 96.294685,148.543518 97.031982,151.211670 
	C105.695671,142.412613 105.883827,133.066940 100.072388,122.639709 
M52.501915,142.903503 
	C48.957729,142.828659 47.458439,145.354080 47.037766,148.123749 
	C46.785007,149.787872 47.635006,152.065933 48.772591,153.400467 
	C51.034573,156.054047 60.649323,155.795547 63.550354,153.466751 
	C61.724834,150.959702 60.085976,148.301834 58.022903,146.029022 
	C56.793102,144.674179 54.897194,143.923965 52.501915,142.903503 
M123.934158,140.565063 
	C121.160187,142.236206 118.386208,143.907349 115.612236,145.578476 
	C115.907692,146.243484 116.203148,146.908478 116.498604,147.573486 
	C117.488266,147.385590 118.825394,147.536713 119.401970,146.945786 
	C121.080948,145.224945 122.455650,143.207245 123.934158,140.565063 
z"/>
<path fill="#F6E684" opacity="1.000000" stroke="none" 
	d="
M79.010643,87.243408 
	C89.003929,92.922760 98.997223,98.602112 108.765999,104.615997 
	C107.237030,104.356262 105.978981,103.552505 104.610046,103.249268 
	C103.835876,103.077774 102.879532,103.728676 101.659821,104.058945 
	C100.878098,105.072777 100.441803,106.036827 99.629379,107.000977 
	C98.501137,107.005592 97.749016,107.010117 96.568939,107.008186 
	C94.428467,106.999512 92.715950,106.997284 90.881775,106.786224 
	C90.404076,106.593224 90.048035,106.609032 89.692001,106.624847 
	C90.126266,106.751610 90.560532,106.878380 90.888931,107.225342 
	C90.586441,107.720955 90.327072,107.910568 89.642349,108.005692 
	C85.465500,107.309219 81.237953,111.231995 77.744766,106.962967 
	C77.804199,104.670311 77.481567,103.134377 74.797913,101.893791 
	C68.346825,98.911621 62.243309,95.177574 56.272255,91.395569 
	C57.699516,91.027679 58.854080,91.011086 60.159462,91.297256 
	C61.747280,92.662590 63.184284,93.725166 64.013939,94.338646 
	C66.511452,93.876404 68.369522,93.102470 70.121964,93.294151 
	C74.278954,93.748840 78.385864,94.661362 82.513016,95.388840 
	C82.772461,94.818497 83.031906,94.248154 83.291359,93.677818 
	C81.864456,91.533012 80.437546,89.388206 79.010643,87.243408 
M81.239624,106.444794 
	C81.605850,106.426476 81.972076,106.408150 82.338303,106.389832 
	C81.910233,106.241547 81.482155,106.093262 81.017967,105.455032 
	C80.873924,105.185898 80.729881,104.916771 80.585838,104.647644 
	C80.714714,105.111511 80.843582,105.575378 81.239624,106.444794 
z"/>
<path fill="#DA9D37" opacity="1.000000" stroke="none" 
	d="
M77.655449,65.048370 
	C77.433411,60.925316 77.433846,56.774757 76.928360,52.686749 
	C76.395309,48.375847 75.379364,44.124649 74.535652,39.641541 
	C80.540077,39.641541 87.074707,39.641541 92.693779,39.641541 
	C92.339584,50.576683 91.989021,61.399502 91.225571,72.683685 
	C90.518074,73.115074 90.224281,73.078499 89.927078,72.582657 
	C89.817444,64.041451 90.850723,65.056999 82.524391,64.976845 
	C80.901794,64.961235 79.278450,65.022545 77.655449,65.048370 
z"/>
<path fill="#EDAA37" opacity="1.000000" stroke="none" 
	d="
M145.802109,128.979721 
	C147.073715,142.584976 129.924774,152.897217 119.274826,152.547379 
	C126.485855,147.076599 128.787613,139.696228 130.313782,131.345367 
	C131.821899,130.413513 133.165329,130.147079 134.013580,129.352219 
	C136.643448,126.887810 142.900177,126.584885 145.802109,128.979721 
z"/>
<path fill="#DA9F3A" opacity="1.000000" stroke="none" 
	d="
M91.503311,136.942383 
	C91.974693,142.361862 92.446083,147.781311 92.996353,154.107635 
	C86.871651,154.107635 80.707970,154.107635 74.230133,154.107635 
	C78.841576,143.596649 76.543419,132.582413 77.649712,121.367271 
	C77.956573,120.897171 78.238770,120.997017 78.185211,121.409836 
	C78.169022,123.201218 78.206383,124.579781 78.193924,126.385300 
	C78.164314,128.529877 78.184532,130.247513 78.155151,132.410797 
	C78.105560,135.387756 78.105560,137.919067 78.105560,139.636429 
	C80.139297,139.636429 81.508469,139.379761 82.736717,139.686798 
	C85.844315,140.463669 88.498810,140.419159 90.246300,136.998199 
	C90.833176,136.972748 91.168236,136.957565 91.503311,136.942383 
M78.403259,145.483292 
	C78.403259,145.483292 78.531708,145.400818 78.403259,145.483292 
z"/>
<path fill="#FFFFFF" opacity="1.000000" stroke="none" 
	d="
M100.356567,122.888794 
	C105.883827,133.066940 105.695671,142.412613 97.031982,151.211670 
	C96.294685,148.543518 95.610321,146.247574 95.061913,143.919601 
	C94.960510,143.489166 95.260086,142.716553 95.625420,142.462311 
	C99.172554,139.993896 99.160561,140.040329 96.625076,137.223312 
	C95.967918,136.493195 95.100159,135.568588 95.077805,134.713730 
	C94.936630,129.314590 95.006210,123.909935 95.006210,117.017578 
	C97.291916,119.554108 98.682152,121.096909 100.356567,122.888794 
z"/>
<path fill="#E3A53B" opacity="1.000000" stroke="none" 
	d="
M43.196033,63.051662 
	C44.468376,54.160660 49.020138,47.123295 54.924816,44.379601 
	C54.499989,49.839481 54.055954,55.546280 53.266953,61.742043 
	C52.654942,63.700020 52.387890,65.169029 52.079308,66.866508 
	C48.611973,66.783653 44.429909,68.587448 43.196033,63.051662 
z"/>
<path fill="#F2BE49" opacity="1.000000" stroke="none" 
	d="
M145.876740,128.576782 
	C142.900177,126.584885 136.643448,126.887810 134.013580,129.352219 
	C133.165329,130.147079 131.821899,130.413513 130.423447,130.954163 
	C130.093155,126.255936 130.044388,121.525238 130.391083,116.461174 
	C133.447449,117.898804 136.022324,120.571243 139.142181,116.724548 
	C139.346222,116.472954 140.367981,116.884529 141.357529,116.996681 
	C142.169724,117.026497 142.633743,117.047272 143.097778,117.068039 
	C144.048981,120.769974 145.000183,124.471909 145.876740,128.576782 
z"/>
<path fill="#EBB648" opacity="1.000000" stroke="none" 
	d="
M108.165085,139.974091 
	C107.790253,136.257675 107.415428,132.541275 107.311996,128.170364 
	C107.583389,125.590431 107.583389,123.664978 107.583389,121.739532 
	C107.923355,121.456329 108.263313,121.173134 108.603279,120.889931 
	C109.203049,122.202179 109.802818,123.514427 110.246048,124.484177 
	C112.479393,121.964890 114.225075,119.995705 116.174759,118.197281 
	C116.754387,118.038521 117.130005,117.709000 117.505615,117.379471 
	C119.965820,124.260246 119.804680,131.058441 116.477493,137.545990 
	C116.367828,134.908295 116.644035,132.493652 116.928429,130.007462 
	C112.457123,129.924042 109.889587,131.677536 109.897423,136.550552 
	C109.899261,137.690811 108.772568,138.832870 108.165085,139.974091 
z"/>
<path fill="#C69034" opacity="1.000000" stroke="none" 
	d="
M52.901329,142.902725 
	C54.897194,143.923965 56.793102,144.674179 58.022903,146.029022 
	C60.085976,148.301834 61.724834,150.959702 63.550354,153.466751 
	C60.649323,155.795547 51.034573,156.054047 48.772591,153.400467 
	C47.635006,152.065933 46.785007,149.787872 47.037766,148.123749 
	C47.458439,145.354080 48.957729,142.828659 52.901329,142.902725 
z"/>
<path fill="#F6DE79" opacity="1.000000" stroke="none" 
	d="
M78.755981,86.997406 
	C80.437546,89.388206 81.864456,91.533012 83.291359,93.677818 
	C83.031906,94.248154 82.772461,94.818497 82.513016,95.388840 
	C78.385864,94.661362 74.278954,93.748840 70.121964,93.294151 
	C68.369522,93.102470 66.511452,93.876404 64.013939,94.338646 
	C63.184284,93.725166 61.747280,92.662590 60.562843,91.298187 
	C64.212410,89.660568 67.609413,88.324776 71.205368,86.884598 
	C71.492828,86.413643 71.581329,86.047073 71.669830,85.680504 
	C71.438461,85.782913 71.207092,85.885323 70.683151,85.967957 
	C69.931190,85.635750 69.471802,85.323326 69.053452,84.683716 
	C69.747559,83.889122 70.400612,83.421715 71.053673,82.954308 
	C73.536217,84.220009 76.018768,85.485710 78.755981,86.997406 
z"/>
<path fill="#DFA13D" opacity="1.000000" stroke="none" 
	d="
M123.677811,54.864349 
	C120.633278,50.442608 117.588745,46.020866 114.628174,41.721069 
	C120.812698,40.275146 131.767136,46.265331 136.663055,54.607445 
	C132.964569,53.969109 129.634125,53.041664 126.368828,52.132362 
	C125.926491,53.041767 125.448273,54.024925 124.645981,54.981297 
	C124.107201,54.924454 123.892509,54.894402 123.677811,54.864349 
z"/>
<path fill="#F2CE65" opacity="1.000000" stroke="none" 
	d="
M70.851181,82.683609 
	C70.400612,83.421715 69.747559,83.889122 68.673241,84.718109 
	C66.692352,85.077423 65.110863,84.906540 63.577286,85.105301 
	C59.367172,85.650940 55.177177,86.351807 50.979218,86.991241 
	C48.644112,83.079460 46.309002,79.167671 44.551308,75.157471 
	C45.421497,75.367126 45.714279,75.675209 46.138107,76.296768 
	C47.677887,78.392975 49.086624,80.175690 49.767708,81.037582 
	C53.430885,80.591454 56.126717,80.269135 58.820889,79.933495 
	C62.183315,79.514595 60.660156,77.650047 60.043053,75.964630 
	C60.119133,75.895393 60.277306,75.763847 60.277306,75.763847 
	C63.734436,77.980202 67.191566,80.196556 70.851181,82.683609 
z"/>
<path fill="#F2CC61" opacity="1.000000" stroke="none" 
	d="
M89.931313,73.035324 
	C90.224281,73.078499 90.518074,73.115074 91.032150,73.119476 
	C91.359749,76.430962 91.467888,79.768013 91.161934,83.554993 
	C90.362480,84.167557 89.977135,84.330193 89.591782,84.492828 
	C87.557182,84.018509 85.490807,83.650200 83.493515,83.051437 
	C75.045898,80.518990 77.716385,73.594315 77.983154,67.612099 
	C78.777817,69.804291 79.128601,72.185608 79.663651,75.817924 
	C83.366898,74.814323 86.649109,73.924820 89.931313,73.035324 
z"/>
<path fill="#F1C95C" opacity="1.000000" stroke="none" 
	d="
M115.970749,118.026520 
	C114.225075,119.995705 112.479393,121.964890 110.246048,124.484177 
	C109.802818,123.514427 109.203049,122.202179 108.603279,120.889931 
	C108.263313,121.173134 107.923355,121.456329 107.583389,121.739532 
	C107.583389,123.664978 107.583389,125.590431 107.326324,127.755829 
	C105.410110,125.027107 103.750961,122.058426 102.017891,118.380478 
	C101.021828,114.049927 102.311447,112.564331 106.118408,112.956406 
	C108.712700,113.223579 111.356110,113.013855 114.026268,113.334045 
	C114.708000,114.097992 115.341011,114.545273 115.974030,114.992554 
	C115.974030,114.992554 116.134315,115.361710 116.078796,115.937904 
	C116.005760,117.018242 115.988251,117.522377 115.970749,118.026520 
z"/>
<path fill="#FFFFFF" opacity="1.000000" stroke="none" 
	d="
M115.543045,103.559288 
	C122.183121,106.367783 124.727875,112.427872 125.731125,118.497810 
	C126.803825,124.987991 125.972916,131.792816 125.972916,138.460297 
	C125.183182,138.494049 124.393440,138.527802 123.603706,138.561554 
	C123.075150,132.701797 123.220695,126.675774 121.828072,121.029114 
	C120.440956,115.404861 117.510300,110.161293 115.096817,104.411499 
	C115.068764,103.954468 115.200310,103.836746 115.543045,103.559288 
z"/>
<path fill="#EEB546" opacity="1.000000" stroke="none" 
	d="
M46.007057,75.983292 
	C45.714279,75.675209 45.421497,75.367126 44.834034,74.924576 
	C44.014832,71.167961 43.490314,67.545807 43.080914,63.487656 
	C44.429909,68.587448 48.611973,66.783653 52.079308,66.866508 
	C52.387890,65.169029 52.654942,63.700020 53.234825,62.137531 
	C54.382233,64.388924 55.216805,66.733788 56.058029,69.784073 
	C56.463593,70.959732 56.862511,71.429977 57.261433,71.900230 
	C57.261433,71.900230 57.136852,71.899147 57.116615,72.161278 
	C57.385639,72.948586 57.674896,73.473763 57.975182,74.247841 
	C57.986210,74.496742 58.006538,74.994621 57.737297,75.199501 
	C53.647720,75.597351 49.827389,75.790321 46.007057,75.983292 
z"/>
<path fill="#F7DC6E" opacity="1.000000" stroke="none" 
	d="
M113.977554,113.017372 
	C111.356110,113.013855 108.712700,113.223579 106.118408,112.956406 
	C102.311447,112.564331 101.021828,114.049927 101.909958,118.070648 
	C99.116432,116.010757 96.356941,113.551422 93.108673,110.769753 
	C92.085297,110.270927 91.550682,110.094429 90.900826,109.673279 
	C90.525375,108.957207 90.265167,108.485794 90.004967,108.014374 
	C90.327072,107.910568 90.586441,107.720955 90.891510,107.222809 
	C90.999939,107.000069 91.003433,106.995056 91.003433,106.995056 
	C92.715950,106.997284 94.428467,106.999512 96.611038,107.377769 
	C98.144684,108.800568 99.184189,109.876663 100.333031,110.819557 
	C100.400360,110.874817 101.896751,109.619438 101.792229,109.376305 
	C101.412025,108.491913 100.633705,107.778656 100.005493,107.000870 
	C100.441803,106.036827 100.878098,105.072777 101.852707,104.332916 
	C103.590462,105.866409 104.645615,107.377266 106.058380,108.388542 
	C106.646088,108.809227 107.996498,108.164413 109.455650,107.961548 
	C110.465744,107.676292 111.020271,107.433601 111.574799,107.190918 
	C111.574799,107.190918 111.723961,107.379311 111.507904,107.810287 
	C111.192719,108.499969 111.093597,108.758659 111.053436,109.365829 
	C112.102104,110.148132 113.091820,110.581947 114.081528,111.015770 
	C114.081528,111.015770 114.281456,111.278839 114.165894,111.787888 
	C114.026070,112.537079 114.001808,112.777222 113.977554,113.017372 
z"/>
<path fill="#EED677" opacity="1.000000" stroke="none" 
	d="
M137.011185,77.996033 
	C132.862381,85.126846 126.570457,88.925812 118.029404,90.445229 
	C119.827629,86.136940 121.374298,82.431343 123.359756,78.422302 
	C124.198532,79.078850 124.598518,80.038849 124.860001,81.054749 
	C124.814728,81.074265 124.907959,81.037895 125.307030,80.775688 
	C129.412308,79.698578 133.211746,78.847305 137.011185,77.996033 
z"/>
<path fill="#F6BE48" opacity="1.000000" stroke="none" 
	d="
M89.927078,72.582657 
	C86.649109,73.924820 83.366898,74.814323 79.663651,75.817924 
	C79.128601,72.185608 78.777817,69.804291 78.126808,67.248627 
	C77.716309,66.627762 77.606049,66.181244 77.575615,65.391556 
	C79.278450,65.022545 80.901794,64.961235 82.524391,64.976845 
	C90.850723,65.056999 89.817444,64.041451 89.927078,72.582657 
z"/>
<path fill="#F2D872" opacity="1.000000" stroke="none" 
	d="
M89.642349,108.005692 
	C90.265167,108.485794 90.525375,108.957207 90.873871,109.984558 
	C91.114334,111.319313 91.266525,112.098145 91.418716,112.876968 
	C91.448761,115.258476 91.478813,117.639992 91.273254,120.450264 
	C91.037636,120.879028 90.767418,121.001198 90.575325,121.002350 
	C90.383232,121.003510 89.999084,120.997070 90.000137,120.565643 
	C89.882988,117.647179 89.764793,115.160149 89.679756,113.370872 
	C85.230087,114.345276 81.493134,115.163612 77.756187,115.981949 
	C77.645981,113.261955 77.535767,110.541969 77.585159,107.392471 
	C81.237953,111.231995 85.465500,107.309219 89.642349,108.005692 
z"/>
<path fill="#ECB747" opacity="1.000000" stroke="none" 
	d="
M123.387718,55.103645 
	C123.892509,54.894402 124.107201,54.924454 124.657875,55.391460 
	C124.259308,63.141750 129.418610,62.624084 135.003860,62.657791 
	C135.645508,60.542908 136.374664,58.139622 137.103806,55.736340 
	C138.185394,59.208588 139.266983,62.680840 139.923080,66.546188 
	C138.811203,66.540077 137.603851,65.698311 137.513123,65.805122 
	C132.919708,71.212410 128.976151,66.371979 124.832108,65.064835 
	C124.253952,61.824200 123.675789,58.583569 123.387718,55.103645 
z"/>
<path fill="#F3B239" opacity="1.000000" stroke="none" 
	d="
M137.121643,55.548523 
	C136.374664,58.139622 135.645508,60.542908 135.003860,62.657791 
	C129.418610,62.624084 124.259308,63.141750 124.981956,55.418251 
	C125.448273,54.024925 125.926491,53.041767 126.368828,52.132362 
	C129.634125,53.041664 132.964569,53.969109 136.638596,54.957146 
	C136.982162,55.017735 137.139481,55.360703 137.121643,55.548523 
z"/>
<path fill="#F0AC34" opacity="1.000000" stroke="none" 
	d="
M108.087006,140.363083 
	C108.772568,138.832870 109.899261,137.690811 109.897423,136.550552 
	C109.889587,131.677536 112.457123,129.924042 116.928429,130.007462 
	C116.644035,132.493652 116.367828,134.908295 116.157196,137.739502 
	C116.222763,138.156082 116.157303,138.106720 115.852051,138.199249 
	C114.803520,139.958527 114.060249,141.625259 113.316978,143.292007 
	C113.316978,143.292007 113.290482,143.145752 113.014542,143.251495 
	C112.521217,143.977417 112.303833,144.597610 112.086441,145.217773 
	C110.104332,146.996597 108.122238,148.775421 106.140144,150.554245 
	C105.747719,150.296982 105.355293,150.039703 104.962875,149.782440 
	C105.978226,146.772324 106.993576,143.762192 108.087006,140.363083 
z"/>
<path fill="#F1C152" opacity="1.000000" stroke="none" 
	d="
M124.740608,65.450882 
	C128.976151,66.371979 132.919708,71.212410 137.513123,65.805122 
	C137.603851,65.698311 138.811203,66.540077 139.809219,66.964920 
	C140.060577,67.610832 140.000305,68.231117 139.297852,69.136627 
	C136.233139,71.574455 133.810608,73.727058 131.475601,75.801888 
	C130.003464,74.785240 128.906860,74.027939 127.795746,73.260612 
	C127.099144,74.725487 126.561043,75.857071 126.016930,76.616043 
	C126.010925,74.783669 126.010925,73.323898 126.010925,71.488846 
	C125.119789,72.297951 124.764534,72.620506 124.409271,72.943054 
	C124.489220,70.574341 124.569168,68.205643 124.740608,65.450882 
z"/>
<path fill="#F4D970" opacity="1.000000" stroke="none" 
	d="
M51.111153,87.286560 
	C55.177177,86.351807 59.367172,85.650940 63.577286,85.105301 
	C65.110863,84.906540 66.692352,85.077423 68.632187,85.045288 
	C69.471802,85.323326 69.931190,85.635750 70.692978,86.218262 
	C70.999046,86.655220 71.002724,86.822098 71.006409,86.988983 
	C67.609413,88.324776 64.212410,89.660568 60.412033,90.995430 
	C58.854080,91.011086 57.699516,91.027679 56.112377,91.072487 
	C54.200901,89.927765 52.721996,88.754814 51.111153,87.286560 
z"/>
<path fill="#F8D160" opacity="1.000000" stroke="none" 
	d="
M77.609573,116.374405 
	C81.493134,115.163612 85.230087,114.345276 89.679756,113.370872 
	C89.764793,115.160149 89.882988,117.647179 89.580040,120.566566 
	C85.518852,120.998291 81.878815,120.997650 78.238770,120.997017 
	C78.238770,120.997017 77.956573,120.897171 77.808945,120.921936 
	C77.595207,119.553421 77.529083,118.160149 77.609573,116.374405 
z"/>
<path fill="#F4BB46" opacity="1.000000" stroke="none" 
	d="
M91.555099,136.499969 
	C91.168236,136.957565 90.833176,136.972748 90.242142,136.616852 
	C90.653992,129.112228 83.840591,133.344116 81.424225,130.761414 
	C81.123489,130.439972 79.314743,131.529434 78.204750,131.965134 
	C78.184532,130.247513 78.164314,128.529877 78.507751,126.358505 
	C83.404053,125.292946 87.769867,125.346542 91.232277,129.003662 
	C91.357147,131.354965 91.482025,133.706268 91.555099,136.499969 
z"/>
<path fill="#F5C453" opacity="1.000000" stroke="none" 
	d="
M91.380943,128.582336 
	C87.769867,125.346542 83.404053,125.292946 78.557587,125.931557 
	C78.206383,124.579781 78.169022,123.201218 78.185211,121.409836 
	C81.878815,120.997650 85.518852,120.998291 89.578995,120.998001 
	C89.999084,120.997070 90.383232,121.003510 90.657211,121.172997 
	C91.006996,121.593430 91.153587,121.792130 91.370956,121.938576 
	C91.423843,124.012718 91.476723,126.086853 91.380943,128.582336 
z"/>
<path fill="#F2CE63" opacity="1.000000" stroke="none" 
	d="
M126.022934,76.988655 
	C126.561043,75.857071 127.099144,74.725487 127.795746,73.260612 
	C128.906860,74.027939 130.003464,74.785240 131.475601,75.801888 
	C133.810608,73.727058 136.233139,71.574455 138.990814,69.250977 
	C138.751709,71.895096 138.177475,74.710083 137.307205,77.760551 
	C133.211746,78.847305 129.412308,79.698578 125.306435,80.774925 
	C125.000000,81.000000 124.998505,80.998848 124.998505,80.998848 
	C124.598518,80.038849 124.198532,79.078850 123.464203,78.060295 
	C122.946190,77.689445 122.964607,77.389565 123.791534,77.017731 
	C124.939613,76.951790 125.481270,76.970222 126.022934,76.988655 
z"/>
<path fill="#F7CF5D" opacity="1.000000" stroke="none" 
	d="
M141.009369,116.987640 
	C140.367981,116.884529 139.346222,116.472954 139.142181,116.724548 
	C136.022324,120.571243 133.447449,117.898804 130.443085,116.064224 
	C129.743881,115.590958 129.388168,115.181267 128.996994,114.141060 
	C128.985458,113.016762 129.009384,112.522964 129.355377,112.067383 
	C130.516174,112.808144 131.354874,113.510689 131.372009,113.525032 
	C134.079956,112.499306 136.192139,111.699249 138.304321,110.899193 
	C138.616699,110.830185 138.863541,110.927490 139.147125,111.700989 
	C139.577087,112.441551 139.904770,112.672226 140.232468,112.902908 
	C140.232468,112.902908 140.111832,112.907555 140.109802,113.213974 
	C140.408295,114.676147 140.708832,115.831894 141.009369,116.987640 
z"/>
<path fill="#F6D76D" opacity="1.000000" stroke="none" 
	d="
M138.187347,110.622833 
	C136.192139,111.699249 134.079956,112.499306 131.372009,113.525032 
	C131.354874,113.510689 130.516174,112.808144 129.336395,111.683777 
	C127.854408,109.979980 126.713501,108.698006 125.572594,107.416039 
	C125.572594,107.416039 125.851257,107.271393 125.859116,106.967239 
	C126.930725,105.720215 127.994469,104.777328 129.058212,103.834442 
	C129.230103,103.821602 129.402008,103.808754 129.922058,104.162064 
	C130.585205,104.627197 130.900177,104.726189 131.215149,104.825188 
	C131.215149,104.825188 131.061432,104.904854 131.112122,105.207710 
	C132.859589,106.635178 134.556351,107.759796 136.253128,108.884407 
	C136.858887,109.371765 137.464630,109.859116 138.187347,110.622833 
z"/>
<path fill="#F4DB77" opacity="1.000000" stroke="none" 
	d="
M109.000084,108.004112 
	C107.996498,108.164413 106.646088,108.809227 106.058380,108.388542 
	C104.645615,107.377266 103.590462,105.866409 102.198135,104.283134 
	C102.879532,103.728676 103.835876,103.077774 104.610046,103.249268 
	C105.978981,103.552505 107.237030,104.356262 108.925400,104.923187 
	C109.612274,104.843109 109.858376,104.937965 109.992516,105.696953 
	C109.624985,106.810364 109.312538,107.407234 109.000084,108.004112 
z"/>
<path fill="#FFFFFF" opacity="1.000000" stroke="none" 
	d="
M123.941917,140.935516 
	C122.455650,143.207245 121.080948,145.224945 119.401970,146.945786 
	C118.825394,147.536713 117.488266,147.385590 116.498604,147.573486 
	C116.203148,146.908478 115.907692,146.243484 115.612236,145.578476 
	C118.386208,143.907349 121.160187,142.236206 123.941917,140.935516 
z"/>
<path fill="#E5D078" opacity="1.000000" stroke="none" 
	d="
M128.874786,103.557907 
	C127.994469,104.777328 126.930725,105.720215 125.709290,107.014091 
	C124.290237,105.916214 123.028885,104.467339 121.767532,103.018463 
	C121.973328,102.517616 122.179131,102.016769 122.384926,101.515930 
	C124.487068,102.104408 126.589218,102.692886 128.874786,103.557907 
z"/>
<path fill="#E5D078" opacity="1.000000" stroke="none" 
	d="
M125.640839,107.756363 
	C126.713501,108.698006 127.854408,109.979980 129.014313,111.645561 
	C129.009384,112.522964 128.985458,113.016762 128.920929,113.879013 
	C127.823257,112.197205 126.766174,110.146950 125.640839,107.756363 
z"/>
<path fill="#E5D078" opacity="1.000000" stroke="none" 
	d="
M136.169724,108.551865 
	C134.556351,107.759796 132.859589,106.635178 131.170227,105.143539 
	C132.813858,105.924110 134.450089,107.071724 136.169724,108.551865 
z"/>
<path fill="#EED677" opacity="1.000000" stroke="none" 
	d="
M126.016930,76.616043 
	C125.481270,76.970222 124.939613,76.951790 123.993881,76.892723 
	C123.753914,75.793945 123.918015,74.735809 124.245697,73.310364 
	C124.764534,72.620506 125.119789,72.297951 126.010925,71.488846 
	C126.010925,73.323898 126.010925,74.783669 126.016930,76.616043 
z"/>
<path fill="#F4DB77" opacity="1.000000" stroke="none" 
	d="
M114.122116,110.682915 
	C113.091820,110.581947 112.102104,110.148132 111.285309,109.235184 
	C111.650658,108.462639 111.843094,108.169228 112.035522,107.875809 
	C112.744583,108.700562 113.453644,109.525307 114.122116,110.682915 
z"/>
<path fill="#EBB648" opacity="1.000000" stroke="none" 
	d="
M113.611832,143.121231 
	C114.060249,141.625259 114.803520,139.958527 115.891846,138.191071 
	C115.460159,139.710403 114.683418,141.330429 113.611832,143.121231 
z"/>
<path fill="#F6D76D" opacity="1.000000" stroke="none" 
	d="
M141.357513,116.996689 
	C140.708832,115.831894 140.408295,114.676147 140.130020,113.157104 
	C141.136856,113.987862 142.121429,115.181915 143.101898,116.722008 
	C142.633743,117.047272 142.169724,117.026497 141.357513,116.996689 
z"/>
<path fill="#F4DB77" opacity="1.000000" stroke="none" 
	d="
M114.026268,113.334045 
	C114.001808,112.777222 114.026070,112.537079 114.095856,111.937515 
	C114.816010,112.487373 115.490616,113.396645 116.069626,114.649239 
	C115.341011,114.545273 114.708000,114.097992 114.026268,113.334045 
z"/>
<path fill="#DA9F3A" opacity="1.000000" stroke="none" 
	d="
M91.610275,112.633827 
	C91.266525,112.098145 91.114334,111.319313 90.989105,110.229210 
	C91.550682,110.094429 92.085297,110.270927 92.775185,110.683319 
	C92.554260,111.409706 92.178047,111.900192 91.610275,112.633827 
z"/>
<path fill="#DA9D37" opacity="1.000000" stroke="none" 
	d="
M89.699768,84.740593 
	C89.977135,84.330193 90.362480,84.167557 91.065094,84.001404 
	C91.275162,84.697937 91.167976,85.398003 91.060791,86.098061 
	C90.643112,85.728157 90.225426,85.358253 89.699768,84.740593 
z"/>
<path fill="#F2CE65" opacity="1.000000" stroke="none" 
	d="
M58.006538,74.994621 
	C58.006538,74.994621 57.986210,74.496742 58.258018,74.236412 
	C58.717930,73.964676 58.906033,73.953262 59.094135,73.941856 
	C59.456108,74.357048 59.818085,74.772247 60.228683,75.475647 
	C60.277306,75.763847 60.119133,75.895393 59.790428,75.848312 
	C58.976662,75.532364 58.491600,75.263496 58.006538,74.994621 
z"/>
<path fill="#F5C754" opacity="1.000000" stroke="none" 
	d="
M59.004997,73.655197 
	C58.906033,73.953262 58.717930,73.964676 58.246990,73.987511 
	C57.674896,73.473763 57.385639,72.948586 57.143204,72.104950 
	C57.765301,72.313828 58.340580,72.841179 59.004997,73.655197 
z"/>
<path fill="#F4DB77" opacity="1.000000" stroke="none" 
	d="
M116.174759,118.197281 
	C115.988251,117.522377 116.005760,117.018242 116.062698,116.138489 
	C116.544487,116.108147 116.986855,116.453423 117.467415,117.089088 
	C117.130005,117.709000 116.754387,118.038521 116.174759,118.197281 
z"/>
<path fill="#F6E684" opacity="1.000000" stroke="none" 
	d="
M109.455650,107.961548 
	C109.312538,107.407234 109.624985,106.810364 110.050446,105.895271 
	C110.573029,105.942940 110.982613,106.308815 111.483490,106.932800 
	C111.020271,107.433601 110.465744,107.676292 109.455650,107.961548 
z"/>
<path fill="#EBB648" opacity="1.000000" stroke="none" 
	d="
M112.385910,145.082153 
	C112.303833,144.597610 112.521217,143.977417 113.081459,143.283813 
	C113.178001,143.789093 112.931686,144.367798 112.385910,145.082153 
z"/>
<path fill="#F5C754" opacity="1.000000" stroke="none" 
	d="
M57.260597,71.563850 
	C56.862511,71.429977 56.463593,70.959732 56.058163,70.154152 
	C56.454353,70.288368 56.857056,70.757919 57.260597,71.563850 
z"/>
<path fill="#DA9F3A" opacity="1.000000" stroke="none" 
	d="
M91.479195,121.672867 
	C91.153587,121.792130 91.006996,121.593430 90.849304,121.171844 
	C90.767418,121.001198 91.037636,120.879028 91.185730,120.885742 
	C91.418358,121.064026 91.502892,121.235596 91.479195,121.672867 
z"/>
<path fill="#F6D76D" opacity="1.000000" stroke="none" 
	d="
M140.154724,112.605385 
	C139.904770,112.672226 139.577087,112.441551 139.171967,111.909531 
	C139.422028,111.841415 139.749512,112.074638 140.154724,112.605385 
z"/>
<path fill="#F6E684" opacity="1.000000" stroke="none" 
	d="
M112.004745,107.789520 
	C111.843094,108.169228 111.650658,108.462639 111.226349,108.886696 
	C111.093597,108.758659 111.192719,108.499969 111.557999,107.919495 
	C111.824150,107.597725 111.973953,107.703239 112.004745,107.789520 
z"/>
<path fill="#E5D078" opacity="1.000000" stroke="none" 
	d="
M131.100800,104.586655 
	C130.900177,104.726189 130.585205,104.627197 130.131500,104.313705 
	C130.324005,104.182175 130.655228,104.265144 131.100800,104.586655 
z"/>
<path fill="#F4DB77" opacity="1.000000" stroke="none" 
	d="
M99.629372,107.000969 
	C100.633705,107.778656 101.412025,108.491913 101.792229,109.376305 
	C101.896751,109.619438 100.400360,110.874817 100.333031,110.819557 
	C99.184189,109.876663 98.144684,108.800568 97.039001,107.384216 
	C97.749016,107.010117 98.501137,107.005592 99.629372,107.000969 
z"/>
<path fill="#F2D872" opacity="1.000000" stroke="none" 
	d="
M80.972450,106.039246 
	C80.843582,105.575378 80.714714,105.111511 80.585838,104.647644 
	C80.729881,104.916771 80.873924,105.185898 81.014587,105.722672 
	C81.011200,105.990318 80.972450,106.039246 80.972450,106.039246 
z"/>
<path fill="#F2D872" opacity="1.000000" stroke="none" 
	d="
M81.032639,105.967651 
	C81.482155,106.093262 81.910233,106.241547 82.338303,106.389832 
	C81.972076,106.408150 81.605850,106.426476 81.106033,106.242020 
	C80.972450,106.039246 81.011200,105.990318 81.032639,105.967651 
z"/>
<path fill="#F7DC6E" opacity="1.000000" stroke="none" 
	d="
M90.997360,107.002609 
	C90.560532,106.878380 90.126266,106.751610 89.692001,106.624847 
	C90.048035,106.609032 90.404076,106.593224 90.881775,106.786232 
	C91.003433,106.995056 90.999939,107.000069 90.997360,107.002609 
z"/>
<path fill="#F3B23B" opacity="1.000000" stroke="none" 
	d="
M78.155151,132.410797 
	C79.314743,131.529434 81.123489,130.439972 81.424225,130.761414 
	C83.840591,133.344116 90.653992,129.112228 89.990341,136.627136 
	C88.498810,140.419159 85.844315,140.463669 82.736717,139.686798 
	C81.508469,139.379761 80.139297,139.636429 78.105560,139.636429 
	C78.105560,137.919067 78.105560,135.387756 78.155151,132.410797 
z"/>
<path fill="#F3B23B" opacity="1.000000" stroke="none" 
	d="
M78.467484,145.442047 
	C78.531708,145.400818 78.403259,145.483292 78.467484,145.442047 
z"/>
<path fill="#F2CE65" opacity="1.000000" stroke="none" 
	d="
M71.205368,86.884598 
	C71.002724,86.822098 70.999046,86.655220 70.985550,86.238037 
	C71.207092,85.885323 71.438461,85.782913 71.669830,85.680504 
	C71.581329,86.047073 71.492828,86.413643 71.205368,86.884598 
z"/>
<path fill="#F5C754" opacity="1.000000" stroke="none" 
	d="
M57.737297,75.199501 
	C58.491600,75.263496 58.976662,75.532364 59.714348,75.917549 
	C60.660156,77.650047 62.183315,79.514595 58.820889,79.933495 
	C56.126717,80.269135 53.430885,80.591454 49.767708,81.037582 
	C49.086624,80.175690 47.677887,78.392975 46.138107,76.296776 
	C49.827389,75.790321 53.647720,75.597351 57.737297,75.199501 
z"/>
<path fill="#F2CE63" opacity="1.000000" stroke="none" 
	d="
M125.000595,81.000763 
	C124.907959,81.037895 124.814728,81.074265 124.860001,81.054749 
	C124.998505,80.998848 125.000000,81.000000 125.000595,81.000763 
z"/>
</svg>